<svg xmlns="http://www.w3.org/2000/svg" width="399.178" height="500" viewBox="0 0 399.178 500">
  <g id="Bharat_Petroleum_Logo" transform="translate(-1.929 -2.241)">
    <path id="Path_1" data-name="Path 1" d="M1.929,2.241H401.107V470.286H1.929V2.241m8.978,8.978H390.836v286.23H10.907Z" transform="translate(0 0)" fill="#ffde00" fill-rule="evenodd"/>
    <rect id="Rectangle_1" data-name="Rectangle 1" width="399.139" height="33.371" transform="translate(1.929 468.87)" fill="#007dc6"/>
    <path id="Path_2" data-name="Path 2" d="M140.313,252.24c-52.665,0-95.622-42.552-95.622-94.745,0-52.176,42.956-94.733,95.622-94.733s95.622,42.552,95.622,94.733-42.951,94.745-95.622,94.745m-1.282,4.346c-68.221,0-123.86-55.634-123.86-123.86C15.171,64.516,70.81,8.86,139.031,8.86s123.86,55.656,123.86,123.866S207.246,256.586,139.031,256.586Z" transform="translate(61.202 30.592)" fill="#007dc6" fill-rule="evenodd"/>
    <path id="Path_3" data-name="Path 3" d="M105.468,186.123c-45.829,0-83.214-37.121-83.214-82.652s37.385-82.647,83.214-82.647,83.209,37.121,83.209,82.647-37.385,82.652-83.209,82.652" transform="translate(93.939 85.887)" fill="#007dc6" fill-rule="evenodd"/>
    <path id="Path_4" data-name="Path 4" d="M55.934,111.631c17.293-.545,22.358-19.7,23.162-39.235.81-19.553,18.293-35.822,45.34-34.934-43.451-29.115-94.205-2.389-97.7,31.7-3.474,34.085,11.9,43,29.194,42.473" transform="translate(112.385 105.313)" fill="#ffde00" fill-rule="evenodd"/>
    <path id="Path_5" data-name="Path 5" d="M98.04,30.639c-17.006.54-21.987,19.693-22.774,39.235s-17.99,35.811-44.57,34.917c42.709,29.138,92.614,2.412,96.038-31.679S115.04,30.094,98.04,30.639" transform="translate(132.956 131.144)" fill="#ffde00" fill-rule="evenodd"/>
    <path id="Path_6" data-name="Path 6" d="M33.96,78.623h2.429a6.991,6.991,0,0,0,4.267-1.1,3.7,3.7,0,0,0,1.479-3.165,3.819,3.819,0,0,0-1.479-3.266,7.208,7.208,0,0,0-4.334-1.119H33.966v8.652M33.96,87.5v9.186h3.013A7.012,7.012,0,0,0,41.4,95.505a4.324,4.324,0,0,0,1.45-3.559A3.957,3.957,0,0,0,41.4,88.59,7.328,7.328,0,0,0,36.973,87.5Zm-17.6,19.007V59.919H34.095q7.716,0,12.064.444a26.193,26.193,0,0,1,6.875,1.456,10.251,10.251,0,0,1,4.936,3.98,11.513,11.513,0,0,1,1.737,6.375,9.286,9.286,0,0,1-2.226,6.42,13.206,13.206,0,0,1-6.8,3.671q5.262.978,7.769,3.643a10.126,10.126,0,0,1,2.519,7.275q0,6.637-4.913,9.979t-14.679,3.345Z" transform="translate(66.688 266.578)" fill="#007dc6" fill-rule="evenodd"/>
    <path id="Path_7" data-name="Path 7" d="M25.4,106.507V59.919H41.11V79.1a10.388,10.388,0,0,1,4.222-4.379,13.1,13.1,0,0,1,6.437-1.467q5.65,0,8.36,3.165c1.821,2.125,2.738,5.374,2.738,9.776V106.5H46.985V86.381a4.734,4.734,0,0,0-.7-2.862,2.7,2.7,0,0,0-2.232-.894A2.642,2.642,0,0,0,41.9,83.6a4.085,4.085,0,0,0-.787,2.659v20.25H25.4" transform="translate(108.493 266.578)" fill="#007dc6" fill-rule="evenodd"/>
    <path id="Path_8" data-name="Path 8" d="M34.672,72.46A9.708,9.708,0,0,1,39.456,64.9q4.233-2.606,11.71-2.609a34.821,34.821,0,0,1,7.966.81,15.323,15.323,0,0,1,5.549,2.311A7.945,7.945,0,0,1,67.6,69.233a21.95,21.95,0,0,1,.843,7.106V95.554H54.337l-.422-3.227a10.4,10.4,0,0,1-4.183,3.019,16.126,16.126,0,0,1-5.982,1,10.732,10.732,0,0,1-7.764-2.738,9.792,9.792,0,0,1-2.85-7.438c0-4.1,1.524-7.027,4.593-8.787q4.579-2.648,15.533-2.659h.455V72.713a3.786,3.786,0,0,0-.669-2.519,2.8,2.8,0,0,0-2.209-.748,3.3,3.3,0,0,0-2.339.708,3.361,3.361,0,0,0-.866,2.282l-12.964.022m19.047,8.652H51.65a5.922,5.922,0,0,0-3.682,1,3.468,3.468,0,0,0,2.159,6.28,3.2,3.2,0,0,0,2.71-1.169,6,6,0,0,0,.877-3.587V81.112Z" transform="translate(144.238 277.536)" fill="#007dc6" fill-rule="evenodd"/>
    <path id="Path_9" data-name="Path 9" d="M56.306,66.551l1.771-1.6a9.97,9.97,0,0,1,2.9-2.187,6.79,6.79,0,0,1,2.62-.472,8.421,8.421,0,0,1,2.024.247,7.674,7.674,0,0,1,1.793.736V75.428a30.554,30.554,0,0,0-3.21-.776,14.521,14.521,0,0,0-2.609-.275,4.1,4.1,0,0,0-3.553,1.552,8.6,8.6,0,0,0-1.113,4.942V95.543H40.795V63.077H56.306v3.474" transform="translate(179.632 277.536)" fill="#007dc6" fill-rule="evenodd"/>
    <path id="Path_10" data-name="Path 10" d="M47.741,72.46A9.71,9.71,0,0,1,52.514,64.9q4.242-2.606,11.7-2.609a34.8,34.8,0,0,1,7.972.81,15.428,15.428,0,0,1,5.56,2.311,8.1,8.1,0,0,1,2.906,3.823,22.109,22.109,0,0,1,.843,7.106V95.554H67.4l-.422-3.227a10.474,10.474,0,0,1-4.183,3.019,16.1,16.1,0,0,1-5.982,1,10.663,10.663,0,0,1-7.747-2.738,9.727,9.727,0,0,1-2.878-7.438q0-6.147,4.6-8.787c3.053-1.765,8.253-2.659,15.539-2.659h.45V72.713a3.786,3.786,0,0,0-.669-2.519,2.773,2.773,0,0,0-2.2-.748,3.242,3.242,0,0,0-2.327.708,3.288,3.288,0,0,0-.883,2.282l-12.953.022m19.036,8.652H64.714a5.907,5.907,0,0,0-3.688,1,3.369,3.369,0,0,0-1.282,2.845,3.207,3.207,0,0,0,3.435,3.435,3.189,3.189,0,0,0,2.7-1.169,6,6,0,0,0,.883-3.587V81.112Z" transform="translate(204.539 277.536)" fill="#007dc6" fill-rule="evenodd"/>
    <path id="Path_11" data-name="Path 11" d="M53.366,80.926V71.419H57.65V65.792l15.522-5.307V71.419h7.443v9.507H73.172v9.956a3.1,3.1,0,0,0,.866,2.412,3.771,3.771,0,0,0,2.62.781,9.641,9.641,0,0,0,1.467-.157c.562-.1,1.192-.247,1.861-.41v9.608c-2.086.512-4.02.911-5.785,1.181a35.326,35.326,0,0,1-4.964.394q-5.734,0-8.663-2.479T57.65,94.834v-13.9H53.366" transform="translate(237.733 269.194)" fill="#007dc6" fill-rule="evenodd"/>
    <path id="Path_12" data-name="Path 12" d="M22.673,84.141v9.7c.18.022.371.051.6.062h.877a6.61,6.61,0,0,0,4.436-1.282,4.722,4.722,0,0,0,1.484-3.8,4.133,4.133,0,0,0-1.54-3.547,8.023,8.023,0,0,0-4.762-1.13H22.673M4.554,120.307V73.724H27.975q10.28,0,15.319,3.761c3.356,2.507,5.032,6.3,5.032,11.4q0,7.708-5.02,11.66t-14.712,3.969h-5.92v15.8H4.554Z" transform="translate(12.132 330.382)" fill="#007dc6" fill-rule="evenodd"/>
    <path id="Path_13" data-name="Path 13" d="M27.7,88.973h8.377c0-.107.011-.264.028-.472s.028-.354.028-.433A4.631,4.631,0,0,0,35.083,84.8a3.933,3.933,0,0,0-3.041-1.13,4.027,4.027,0,0,0-3.182,1.316A5.27,5.27,0,0,0,27.7,88.6v.371m22.611,6.735H27.831v.911a6.788,6.788,0,0,0,1.13,4.278,3.881,3.881,0,0,0,3.317,1.479,3.994,3.994,0,0,0,2.817-.9,4.96,4.96,0,0,0,1.3-2.98h13.38a9.754,9.754,0,0,1-4.531,8.613c-3.036,2.024-7.348,3.03-12.975,3.03q-9.175,0-14.465-4.576t-5.3-12.441c0-5.245,1.76-9.377,5.3-12.441q5.279-4.579,14.465-4.587,8.728,0,13.47,4.452c3.143,2.951,4.739,7.162,4.739,12.638,0,.472-.056,1.231-.141,2.3A.553.553,0,0,1,50.307,95.708Z" transform="translate(48.885 341.331)" fill="#007dc6" fill-rule="evenodd"/>
    <path id="Path_14" data-name="Path 14" d="M19.852,94.729V85.222h4.289V79.6l15.511-5.313V85.222H47.1v9.507H39.652v9.951a3.113,3.113,0,0,0,.866,2.406,3.745,3.745,0,0,0,2.62.787,8.7,8.7,0,0,0,1.462-.152c.579-.1,1.2-.247,1.878-.4v9.6q-3.145.784-5.8,1.175a32.235,32.235,0,0,1-4.947.4q-5.76,0-8.669-2.479c-1.962-1.642-2.923-4.1-2.923-7.376v-13.9H19.852" transform="translate(82.837 332.989)" fill="#007dc6" fill-rule="evenodd"/>
    <path id="Path_15" data-name="Path 15" d="M41.41,80.37l1.771-1.608a10.5,10.5,0,0,1,2.89-2.2,7.187,7.187,0,0,1,2.62-.472,8.391,8.391,0,0,1,2.029.259,7.148,7.148,0,0,1,1.793.742V89.247a29.231,29.231,0,0,0-3.2-.781,14.035,14.035,0,0,0-2.614-.264,4.058,4.058,0,0,0-3.547,1.54,8.571,8.571,0,0,0-1.119,4.93v14.684H25.894V76.879H41.41V80.37" transform="translate(110.762 341.327)" fill="#007dc6" fill-rule="evenodd"/>
    <path id="Path_16" data-name="Path 16" d="M51,84.654a2.694,2.694,0,0,0-2.58,1.94,19.072,19.072,0,0,0-.781,6.527c0,3.176.242,5.374.753,6.594A2.654,2.654,0,0,0,51,101.52a2.624,2.624,0,0,0,2.58-1.8c.506-1.22.748-3.412.748-6.594a19.354,19.354,0,0,0-.77-6.594A2.633,2.633,0,0,0,51,84.654M51,76.092c6.133,0,10.974,1.524,14.5,4.531q5.287,4.545,5.29,12.441c0,5.273-1.765,9.445-5.273,12.464Q60.246,110.09,51,110.087q-9.276,0-14.521-4.52T31.235,93.126q0-7.952,5.268-12.5Q41.748,76.1,51,76.092Z" transform="translate(135.447 341.327)" fill="#007dc6" fill-rule="evenodd"/>
    <rect id="Rectangle_2" data-name="Rectangle 2" width="16.123" height="46.582" transform="translate(212.568 404.106)" fill="#007dc6"/>
    <path id="Path_17" data-name="Path 17" d="M58.581,88.973h8.382a4.11,4.11,0,0,1,.023-.472c.017-.2.039-.354.039-.433A4.632,4.632,0,0,0,65.968,84.8a3.925,3.925,0,0,0-3.041-1.13,4.063,4.063,0,0,0-3.188,1.316A5.268,5.268,0,0,0,58.581,88.6v.371M81.2,95.708H58.715v.911a6.935,6.935,0,0,0,1.119,4.278,3.91,3.91,0,0,0,3.328,1.479,3.994,3.994,0,0,0,2.817-.9,5.059,5.059,0,0,0,1.3-2.98H80.663a9.766,9.766,0,0,1-4.531,8.613c-3.041,2.024-7.353,3.03-12.975,3.03q-9.183,0-14.465-4.576c-3.547-3.047-5.3-7.2-5.3-12.441s1.754-9.377,5.3-12.441q5.279-4.579,14.465-4.587,8.711,0,13.47,4.452,4.731,4.427,4.734,12.638c0,.472-.051,1.231-.124,2.3A.645.645,0,0,1,81.2,95.708Z" transform="translate(191.653 341.331)" fill="#007dc6" fill-rule="evenodd"/>
    <path id="Path_18" data-name="Path 18" d="M51.136,76.237H66.905V96.3a4.694,4.694,0,0,0,.748,2.9,2.729,2.729,0,0,0,2.243.922,2.645,2.645,0,0,0,2.176-.973,4.116,4.116,0,0,0,.781-2.659V76.231H88.594V104.25c0,.129.028.691.107,1.7.062.984.118,1.917.157,2.76H73.6v-5.127a13.178,13.178,0,0,1-4.891,4.413,14.012,14.012,0,0,1-6.533,1.5q-5.658,0-8.337-3.159c-1.8-2.1-2.693-5.369-2.693-9.788V76.237" transform="translate(227.426 341.969)" fill="#007dc6" fill-rule="evenodd"/>
    <path id="Path_19" data-name="Path 19" d="M59.426,109.362V81.343c0-.112-.028-.647-.1-1.636s-.124-1.94-.146-2.822H74.431v5.054a13.012,13.012,0,0,1,4.852-4.368,13.853,13.853,0,0,1,6.493-1.479,11.767,11.767,0,0,1,5.875,1.4A15,15,0,0,1,96.328,82a11.451,11.451,0,0,1,4.6-4.379,13.887,13.887,0,0,1,6.555-1.524q5.7,0,8.365,3.171,2.682,3.145,2.682,9.782v20.312H102.709V89.247A4.832,4.832,0,0,0,102,86.38a2.683,2.683,0,0,0-2.226-.894,2.615,2.615,0,0,0-2.142.922,4.186,4.186,0,0,0-.753,2.642v20.312H81.014V89.247a4.758,4.758,0,0,0-.7-2.867,2.687,2.687,0,0,0-2.232-.894,2.618,2.618,0,0,0-2.148.973,4.063,4.063,0,0,0-.81,2.654v20.255h-15.7" transform="translate(264.6 341.327)" fill="#007dc6" fill-rule="evenodd"/>
  </g>
</svg>
