<svg xmlns="http://www.w3.org/2000/svg" viewBox="0 0 427.17 412.51"><title>Asset 1</title><g id="Layer_2" data-name="Layer 2"><g id="Layer_1-2" data-name="Layer 1"><path d="M0,412.51H427.17v-4.13h-64c-12,0-22.47-7.42-33.57-15.28-12-8.46-24.27-17.17-39.4-17.17a40.4,40.4,0,0,0-6.9.6c-10.2,1.76-13.71,7.59-14.9,10.91a15.7,15.7,0,0,0,2.64,15.15,13.35,13.35,0,0,0,13,4c4.33-.93,7.66-3.65,8.7-7.1.74-2.47.68-6.36-3.81-10.92a2.07,2.07,0,0,0-3,2.9c1.69,1.72,3.55,4.3,2.8,6.83-.6,2-2.79,3.64-5.61,4.24a9.25,9.25,0,0,1-9-2.66,11.61,11.61,0,0,1-1.88-11.05c1.08-3,4-6.9,11.72-8.24,16.7-2.89,30.16,6.65,43.2,15.88,6.16,4.36,12.44,8.8,19.07,11.9H4.14V66.22C7.24,72.86,11.68,79.14,16,85.3c9.22,13,18.77,26.5,15.87,43.2-1.33,7.72-5.21,10.63-8.23,11.71a11.63,11.63,0,0,1-11-1.87,9.27,9.27,0,0,1-2.66-9c.6-2.81,2.26-5,4.23-5.6,2.53-.76,5.11,1.1,6.83,2.79a2.07,2.07,0,1,0,2.91-2.94c-4.56-4.49-8.46-4.55-10.93-3.81-3.45,1-6.17,4.36-7.09,8.69a13.37,13.37,0,0,0,4,13,15.71,15.71,0,0,0,15.15,2.64c3.32-1.19,9.16-4.71,10.92-14.91a40.23,40.23,0,0,0,.6-6.9c0-15.13-8.71-27.44-17.17-39.39C11.56,71.81,4.14,61.32,4.14,49.34V0H0Z" style="fill:#b6a893"/><path d="M328.47,405.84c-12,.3-24-.27-36.08-.37-.13,0-.13-.2,0-.21h.16s0-.08.05-.09c2.66-1,4.87-3,7-4.87,1.85-1.63,4-3.66,4.37-6.2a1.56,1.56,0,0,1,.93-1.28,1.19,1.19,0,0,1,1.48-.1l.05,0a2.36,2.36,0,0,1,1,.59,103.8,103.8,0,0,0,21.41,9.85A1.36,1.36,0,0,1,328.47,405.84Zm-35.26-.63c9.46-.56,18.89-1.36,28.35-1.81a106.31,106.31,0,0,1-14.18-6.95C305,401.82,298.48,403.81,293.21,405.21Z" style="fill:#b6a893"/><path d="M13.58,187.91c-.77-.86-1.2-2.06-1.93-3a14,14,0,0,0-2.37-2.38,1.78,1.78,0,0,0-2.74.35,1.75,1.75,0,0,0,1,2.56,14.11,14.11,0,0,1,2.91.8A7,7,0,0,1,13.41,188C13.5,188.16,13.68,188,13.58,187.91Z" style="fill:#b6a893"/><path d="M7.24,197c1.91,1.28,4.78.85,7,1.55a16.32,16.32,0,0,1,7.54,4.62c.09.1.23,0,.15-.15-2-2.42-3.75-4.68-6.41-6.42-2.06-1.34-5.44-3.41-7.91-2.44A1.58,1.58,0,0,0,7.24,197Z" style="fill:#b6a893"/><path d="M7.26,120a.81.81,0,0,1,0,.16.1.1,0,1,1-.2,0c-.11-12-.67-24-.38-36.08a1.37,1.37,0,0,1,2.67-.36,104.37,104.37,0,0,0,9.84,21.42,2.38,2.38,0,0,1,.59,1s0,0,0,0a1.2,1.2,0,0,1-.09,1.49,1.58,1.58,0,0,1-1.29.93c-2.54.34-4.56,2.51-6.19,4.37-1.84,2.09-3.89,4.3-4.87,7C7.34,120,7.3,120,7.26,120Zm0-.65c1.4-5.27,3.39-11.78,8.76-14.18A104.59,104.59,0,0,1,9.11,91C8.66,100.42,7.86,109.85,7.31,119.31Z" style="fill:#b6a893"/><path d="M112.85,350.63c5.65,2.59,10,7.63,13.3,12.79a75.54,75.54,0,0,1,3.76,6.76c.91,1.84,1.29,3.48,3.15,4.47a1.38,1.38,0,0,0,2.05-1.17c.37-4.05-5.26-9.64-7.85-12.58A42.4,42.4,0,0,0,113,350.45C112.83,350.39,112.72,350.57,112.85,350.63Z" style="fill:#b6a893"/><path d="M149.84,312.27l-10.58-1.85a1,1,0,0,1-.57-1.73l7.46-7.91a1.07,1.07,0,0,1,.75-.32H147l12.55,1.42a1,1,0,0,1,.57,1.8L150.7,312A1.06,1.06,0,0,1,149.84,312.27Zm-.13-2.12,7.32-6.47-9.73-1.1-5.79,6.13Z" style="fill:#b6a893"/><path d="M122.36,270.22c-4.35,1.32-8.9,5.15-12.1,8.32a53.86,53.86,0,0,0-9,12.27.11.11,0,0,0,.18.11c2.84-4.54,7.44-7.75,11.83-10.64,3.53-2.32,7.75-4.1,11-6.82C125.75,272.19,124.15,269.68,122.36,270.22Z" style="fill:#b6a893"/><path d="M96.21,273.11c-1.58-4.22-3.29-9.75-7.06-12.41-1.05-.74-2.2.48-2,1.53.79,4,4.44,7.42,6.41,11,3.07,5.54,5.18,11.56,4.93,18,0,.13.2.13.21,0A41.65,41.65,0,0,0,96.21,273.11Z" style="fill:#b6a893"/><path d="M57.44,282.59a1,1,0,0,1-1-.37l-6.7-8.39a1.07,1.07,0,0,1-.2-.88l2.79-12.28a1,1,0,0,1,.81-.78,1,1,0,0,1,1.05.42l7.26,10.33a1,1,0,0,1,.19.6,1.19,1.19,0,0,1,0,.32l-3.36,10.33A1,1,0,0,1,57.44,282.59Zm-.57-3.16,2.6-8-5.62-8-2.17,9.52Z" style="fill:#b6a893"/><path d="M121.6,311.06a.1.1,0,1,0,.1.17,54.09,54.09,0,0,0,12.28-9c3.17-3.21,7-7.75,8.31-12.11.54-1.78-2-3.39-3.24-1.89-2.71,3.21-4.49,7.43-6.81,11C129.35,303.62,126.14,308.21,121.6,311.06Z" style="fill:#b6a893"/><path d="M75.81,272.22c.85-1.85-1.51-4.16-3-2.35-6.48,7.59-8.59,18.46-8.61,28.16,0,.13.2.13.21,0C65.26,288.09,71.8,280.86,75.81,272.22Z" style="fill:#b6a893"/><path d="M67.05,345.46c2.23-8.9,2.72-22.45,12.68-25.9,3.15-1.09,7.93-.32,11.44,1.78,2.11,3.52,2.87,8.29,1.78,11.44C89.51,342.74,76,343.24,67.05,345.46Zm8.78-3.33c4-1.47,9.16-2.66,11.92-6.05a9.59,9.59,0,0,0,.84-11.4,5.09,5.09,0,0,0-.31-.45c-.15-.1-.28-.21-.44-.31a9.6,9.6,0,0,0-11.4.84c-3.4,2.76-4.58,7.94-6,11.92-1,2.77-2,5.54-2.91,8.35C70.3,344.15,73.07,343.15,75.83,342.13Z" style="fill:#b6a893"/><path d="M37.86,279.45c1,1.87,2.64,2.25,4.48,3.16a74.19,74.19,0,0,1,6.75,3.75c5.16,3.28,10.21,7.65,12.8,13.31,0,.12.23,0,.18-.1a42.46,42.46,0,0,0-10.46-14.32c-2.94-2.59-8.53-8.22-12.58-7.84A1.37,1.37,0,0,0,37.86,279.45Z" style="fill:#b6a893"/><path d="M205.67,376.74c-13.9-7.3-28.07-8.46-43.17-4.21-12.56,3.52-23.31,10.76-35.46,15.16-11.3,4.09-24.19,7-36.18,5.3C77,391,60.39,378,68.29,362.15c5.84-11.74,23.56-15.74,33.83-8.08,4.17,3.11,7,8,5.71,13.36-1.73,7.1-6.47,4.81-11.46,3-2.15-.77-4.14,2-3,3.85,4.24,6.57,13.14,7.8,18.29,1.44s3.78-16.59-1.28-22.68a22.47,22.47,0,0,0-5.36-4.66,10.65,10.65,0,0,0,9-7.16c2-5.51.58-13.09-4.1-16.93,4.48-1.67,5.24-8.71,4.14-13.07a25,25,0,0,0-4.32-8.49,24.87,24.87,0,0,0-8.49-4.32c-4.35-1.09-11.39-.33-13.06,4.15-3.84-4.69-11.43-6.11-16.94-4.1a10.61,10.61,0,0,0-7.15,9,22.37,22.37,0,0,0-4.67-5.37c-6.09-5.06-16.19-6.51-22.67-1.27s-5.14,14.05,1.43,18.29c1.85,1.19,4.63-.81,3.85-3-1.8-5-4.09-9.73,3-11.45,5.36-1.3,10.26,1.54,13.36,5.7,7.66,10.27,3.66,28-8.07,33.84-15.86,7.9-28.87-8.75-30.85-22.58-1.71-12,1.22-24.87,5.31-36.17C29.22,273.33,36.46,262.58,40,250c4.24-15.1,3.08-29.27-4.22-43.16a.1.1,0,1,0-.17.1c9.9,17.36,6.72,36.8-1.07,54.22-4.35,9.71-10.19,18.53-13.5,28.68-6.46,19.78-9.09,61,22.43,60.39,19.29-.36,29.63-24.67,21.88-40.64,1-4.32,3.9-8,8.88-8.72,5.24-.81,8.85,1.64,12.56,4.95a1.59,1.59,0,0,0,2.65-1.3c3.83-3.44,10.81-2.23,14.85.25a9.43,9.43,0,0,1,1.86,1.59,8.9,8.9,0,0,1,1.59,1.87c2.49,4,3.7,11,.26,14.85a1.59,1.59,0,0,0-1.3,2.65c3.31,3.7,5.76,7.31,5,12.55-.77,5-4.41,7.89-8.73,8.89-16-7.76-40.28,2.59-40.64,21.87-.59,31.53,40.61,28.89,60.39,22.44,10.16-3.31,19-9.16,28.68-13.5,17.42-7.79,36.86-11,54.22-1.07C205.68,377,205.79,376.8,205.67,376.74Z" style="fill:#b6a893"/><path d="M101.17,311.34a3.86,3.86,0,0,0-3.08-1.42,4.24,4.24,0,0,0-4.17,4.16,4.9,4.9,0,0,0,4.51,4.52,4.24,4.24,0,0,0,4.17-4.17A3.92,3.92,0,0,0,101.17,311.34Z" style="fill:#b6a893"/><path d="M31.93,405.14a21.48,21.48,0,0,0-4.76-4,.2.2,0,0,0-.27.27,19.53,19.53,0,0,1,2.27,5.34C29.82,409.27,33.8,407.26,31.93,405.14Z" style="fill:#b6a893"/><path d="M109.91,252.07a1,1,0,0,1,.72.87l1.42,12.56v.11a1,1,0,0,1-.32.76l-7.9,7.46a1,1,0,0,1-1,.23,1,1,0,0,1-.69-.81l-1.86-10.58a1,1,0,0,1,.25-.86l8.34-9.44A1,1,0,0,1,109.91,252.07Zm-1.08,3.42-6.46,7.32L103.8,271l6.13-5.78Z" style="fill:#b6a893"/><path d="M22.33,321.38c0-.13-.2-.13-.21,0C21.2,332,29.78,341.3,40.39,341.8c9.79.45,19.65-8.12,17.35-18.37-.74-3.3-5.58-2.4-5.71.78-.32,7.66-4.09,13.61-12.65,13.52C31,337.65,22.36,329.92,22.33,321.38Z" style="fill:#b6a893"/><path d="M25.12,319.62C21.05,333,44.35,341,49.21,328c1.32-3.53-5-5.25-5.61-1.55-.88,4.92-7.3,4.65-11,3.37a10.27,10.27,0,0,1-7.27-10.19C25.32,319.53,25.16,319.52,25.12,319.62Z" style="fill:#b6a893"/><path d="M140.3,336.71c-8.64,4-15.88,10.55-25.81,11.44-.13,0-.14.21,0,.21,9.69,0,20.56-2.13,28.16-8.61C144.45,338.21,142.14,335.85,140.3,336.71Z" style="fill:#b6a893"/><path d="M121.35,313.81c-.14,0-.14.21,0,.2,6.39-.25,12.42,1.87,18,4.94,3.56,2,7,5.61,11,6.41,1.06.21,2.28-.95,1.54-2-2.66-3.76-8.2-5.47-12.41-7.05A41.5,41.5,0,0,0,121.35,313.81Z" style="fill:#b6a893"/><path d="M152.21,358.32a1,1,0,0,1,.42,1,1,1,0,0,1-.79.81L139.56,363a1,1,0,0,1-.87-.2l-8.4-6.7a1,1,0,0,1-.37-1,1.06,1.06,0,0,1,.7-.8L141,350.91a1.13,1.13,0,0,1,.32-.05,1.06,1.06,0,0,1,.59.19Zm-3.1.35-8-5.63-8,2.61,6.5,5.18Z" style="fill:#b6a893"/><path d="M11.05,146.17c-8,6.86-4.8,21.41-1.48,30,4.77,12.42,13.77,22.78,19.52,34.57a14.74,14.74,0,0,0-5.91-2.21c-12.46-1.93-17.48,11.88-12.12,20.67A21.13,21.13,0,0,1,6.91,246c-3.41,4.19,3.38,8.81,5.64,4.35a22.57,22.57,0,0,0,1.69-17.49,13.61,13.61,0,0,0,2.06,1.36C30.82,242,29.67,218.44,20,225.6c-.11.08,0,.25.1.18q-6,6.38-7.11.19-3.69-6.48,2.55-13.32c5.15-3.53,12.18.61,14.92,4.82s3.52,9.72,3.13,14.69c-.76,9.72-5.52,18.86-10,27.34C16.3,273.4,5.79,288.26,5.7,304.57c0,2.76,4.09,2.71,4.27,0,1.39-21.49,16.8-38.88,23.86-58.61C37.1,236.8,39,219.88,31,212.25a132.6,132.6,0,0,0-9.57-19.9c-4-7.07-7.94-14.3-9.63-22.31-1.82-8.62,1.21-14.8,1.44-23A1.28,1.28,0,0,0,11.05,146.17Z" style="fill:#b6a893"/><path d="M219.53,399.82c.77,1.69,1,3.54,1.75,5.21.85,1.88,3.62.49,3.19-1.34-1-4.27-5.33-6.74-8.45-9.28a.1.1,0,1,0-.13.16A13.88,13.88,0,0,1,219.53,399.82Z" style="fill:#b6a893"/><path d="M212.05,402.76c-.19-6.1-2.6-10.64-6.36-15.26-.07-.09-.23,0-.16.13,3.07,4.05,3.74,9.75,2.72,14.62a1.94,1.94,0,0,0,.5,1.88l.47.39a1.12,1.12,0,0,0,1.29.17l.58-.26A1.88,1.88,0,0,0,212.05,402.76Z" style="fill:#b6a893"/><path d="M17.13,237.76a.1.1,0,0,0-.18.1c.7,1.41,1,2.7,2.11,3.91a6.11,6.11,0,0,0,4.38,2c2.68.27,2.78-4.26,0-4.25C21.51,239.52,18.37,239.56,17.13,237.76Z" style="fill:#b6a893"/><path d="M218.35,404.9c1-2.46-1.09-5.85-2.44-7.9-1.74-2.66-4-4.43-6.42-6.42-.1-.08-.25.07-.14.15a16.4,16.4,0,0,1,4.62,7.54c.7,2.22.26,5.1,1.55,7A1.57,1.57,0,0,0,218.35,404.9Z" style="fill:#b6a893"/><path d="M220.16,391.13a131.75,131.75,0,0,0-19.9-9.58c-7.62-8.05-24.54-6.14-33.71-2.86-19.73,7.05-37.11,22.47-58.6,23.86-2.72.17-2.77,4.28,0,4.27,16.3-.09,31.16-10.6,45.06-17.9,8.49-4.45,17.62-9.21,27.35-10,5-.39,10.44.34,14.69,3.12s8.35,9.77,4.82,14.93q-6.84,6.24-13.32,2.54-6.18-1.08.19-7.11c-.08.12.1.21.17.11,7.16-9.69-16.37-10.84-8.59,3.67a14.51,14.51,0,0,0,1.36,2.07A22.55,22.55,0,0,0,162.2,400c-4.46,2.26.16,9,4.34,5.63a21.14,21.14,0,0,1,16.73-4.15c8.79,5.36,22.61.35,20.68-12.11a14.83,14.83,0,0,0-2.21-5.91c11.79,5.74,22.15,14.74,34.57,19.52,8.62,3.32,23.17,6.5,30-1.49a1.28,1.28,0,0,0-.89-2.15c-8.18.23-14.36,3.26-23,1.44C234.47,399.06,227.23,395.08,220.16,391.13Z" style="fill:#b6a893"/><path d="M7.48,191.24c1.67.76,3.52,1,5.21,1.74a14,14,0,0,1,5.25,3.64.1.1,0,1,0,.16-.12c-2.53-3.12-5-7.45-9.27-8.45C7,187.62,5.6,190.38,7.48,191.24Z" style="fill:#b6a893"/><path d="M25,206.83c-4.62-3.77-9.16-6.17-15.26-6.37a1.89,1.89,0,0,0-1.67,1c-.08.19-.17.39-.26.58A1.14,1.14,0,0,0,8,203.29l.39.48a1.93,1.93,0,0,0,1.89.49c4.87-1,10.56-.35,14.62,2.73C25,207.06,25.11,206.9,25,206.83Z" style="fill:#b6a893"/><path d="M5.6,375.93c2.74,2.47,6.21,5.55,7.78,8.93,0,.11.23,0,.19-.08-.76-1.79-1.18-3.72-1.94-5.53a25.05,25.05,0,0,0-3.29-5.43C6.75,371.75,3.78,374.3,5.6,375.93Z" style="fill:#b6a893"/><path d="M8.37,365.7c2,6.19,6.16,11.59,8.06,17.92,0,.13.24.08.2-.05-1.68-6.25-1.46-13.62-4.9-19.28C10.68,362.55,7.7,363.66,8.37,365.7Z" style="fill:#b6a893"/><path d="M21.05,384.81c0,.13.21.14.21,0-.05-9.11-.11-17.9-2.7-26.72-.74-2.52-4.77-1.4-3.93,1.09C17.44,367.51,20.4,376,21.05,384.81Z" style="fill:#b6a893"/><path d="M229.62,406a1.78,1.78,0,0,0,.35-2.74,14.88,14.88,0,0,0-2.39-2.37c-.91-.72-2.12-1.16-3-1.92a.1.1,0,1,0-.12.16,7,7,0,0,1,1.77,2.91,14,14,0,0,1,.8,2.92A1.76,1.76,0,0,0,229.62,406Z" style="fill:#b6a893"/><path d="M5.77,383.34a19.53,19.53,0,0,1,5.34,2.27.19.19,0,0,0,.26-.26,20.74,20.74,0,0,0-4-4.76C5.25,378.72,3.25,382.69,5.77,383.34Z" style="fill:#b6a893"/><path d="M27.65,399.14c3.39,1.57,6.46,5,8.93,7.78,1.63,1.81,4.18-1.15,2.12-2.74a24.35,24.35,0,0,0-5.44-3.29c-1.8-.77-3.73-1.19-5.53-1.94C27.62,398.9,27.55,399.09,27.65,399.14Z" style="fill:#b6a893"/><path d="M89.6,405.84c-12,.3-24-.27-36.08-.37a.11.11,0,1,1,0-.21h.16s0-.08,0-.09c2.66-1,4.87-3,7-4.87,1.86-1.63,4-3.66,4.37-6.2a1.56,1.56,0,0,1,.93-1.28,1.19,1.19,0,0,1,1.48-.1l.06,0a2.38,2.38,0,0,1,1,.59A103.64,103.64,0,0,0,90,403.18,1.36,1.36,0,0,1,89.6,405.84Zm-35.27-.63c9.46-.56,18.89-1.36,28.36-1.81a106.43,106.43,0,0,1-14.19-6.95C66.11,401.82,59.6,403.81,54.33,405.21Z" style="fill:#b6a893"/><path d="M48.23,400.78c-5.66-3.44-13-3.21-19.28-4.9-.13,0-.18.17-.06.2,6.33,1.9,11.74,6.05,17.92,8.07C48.85,404.81,50,401.83,48.23,400.78Z" style="fill:#b6a893"/><path d="M28.53,387.63a93.68,93.68,0,0,1,30.73,2.06c3.71.87,4.49-4.8.7-5.14a88.51,88.51,0,0,0-31.46,2.88A.1.1,0,0,0,28.53,387.63Z" style="fill:#b6a893"/><path d="M92.87,387.2a10.29,10.29,0,0,1-10.2-7.26c-1.28-3.72-1.54-10.15,3.38-11,3.7-.66,2-6.94-1.55-5.61-12.94,4.86-5,28.16,8.39,24.08C93,387.36,93,387.19,92.87,387.2Z" style="fill:#b6a893"/><path d="M18.42,347.46c-2.54.35-4.56,2.52-6.19,4.37-1.84,2.1-3.89,4.3-4.87,7,0,0-.06,0-.1,0a.86.86,0,0,1,0,.16.1.1,0,0,1-.2,0c-.11-12-.67-24-.38-36.08a1.37,1.37,0,0,1,2.67-.36A104.61,104.61,0,0,0,19.18,344a2.27,2.27,0,0,1,.59,1,.13.13,0,0,1,0,.05,1.19,1.19,0,0,1-.09,1.48A1.56,1.56,0,0,1,18.42,347.46ZM16.07,344a105.17,105.17,0,0,1-7-14.18c-.45,9.46-1.25,18.89-1.8,28.36C8.71,352.91,10.7,346.41,16.07,344Z" style="fill:#b6a893"/><path d="M15.69,391.66a6.5,6.5,0,0,1,4.22.94,6.43,6.43,0,0,1,.94,4.23,4.32,4.32,0,0,1-2.24,3,3.28,3.28,0,0,1-3.06-.14,10,10,0,0,1-1.5-1.25,8.93,8.93,0,0,1-1.24-1.5,3.28,3.28,0,0,1-.15-3.06A4.39,4.39,0,0,1,15.69,391.66Zm-1.16,4.68a4.36,4.36,0,0,0,.29,1.35,4.44,4.44,0,0,0,1.36.3c1.27,0,1.06-1.23.66-2.31C15.75,395.27,14.53,395.07,14.53,396.34Z" style="fill:#b6a893"/><path d="M27.7,391.46c8.84.66,17.31,3.61,25.64,6.43,2.48.83,3.6-3.19,1.08-3.93-8.82-2.59-17.6-2.66-26.72-2.71C27.57,391.25,27.57,391.45,27.7,391.46Z" style="fill:#b6a893"/><path d="M173,389.08c0-2.78-4.51-2.69-4.25,0a6.17,6.17,0,0,0,2,4.38c1.21,1.1,2.51,1.4,3.91,2.11a.11.11,0,0,0,.11-.18C173,394.14,173,391,173,389.08Z" style="fill:#b6a893"/><path d="M88.31,360.49c3.18-.13,4.07-5,.77-5.72-10.25-2.29-18.82,7.57-18.36,17.35.49,10.62,9.85,19.2,20.41,18.27a.11.11,0,0,0,0-.21c-8.54,0-16.26-8.67-16.35-17.05C74.7,364.58,80.64,360.8,88.31,360.49Z" style="fill:#b6a893"/><path d="M9.16,386.82A58.29,58.29,0,0,0,26,386.57a57.58,57.58,0,0,0-.25,16.79c.07.53-.52,1-1,1-5.28,0-10.47-.43-15.69-.86-.42-5.22-.85-10.41-.85-15.68A1,1,0,0,1,9.16,386.82Zm.89,2.19a126.26,126.26,0,0,0-.71,14.17,126.21,126.21,0,0,0,14.16-.72,47.16,47.16,0,0,1-.9-12.54A47.28,47.28,0,0,1,10.05,389Z" style="fill:#b6a893"/><path d="M22.82,353.25A93.42,93.42,0,0,1,24.88,384c0,.12.18.14.21,0A88.69,88.69,0,0,0,28,352.56C27.63,348.76,22,349.54,22.82,353.25Z" style="fill:#b6a893"/><path d="M46.69,380.6a63.52,63.52,0,0,0-17.83,3,63.46,63.46,0,0,0,3.05-17.82c.09-2.95-.6-6,1.82-8.28,2.1-1.93,5.28-1.6,7.87-1.57,5.44.07,10.79-.82,16.14-1.2-.39,5.35-1.27,10.69-1.2,16.13,0,2.59.35,5.78-1.58,7.88C52.73,381.21,49.63,380.52,46.69,380.6Zm-12.45-9.38c.22-.3.42-.61.68-.91,2.76-3.19,7.24-5.37,11.46-4.17,1.2,4.22-1,8.69-4.18,11.45a9.78,9.78,0,0,1-.91.68l.42-.07c1.43-.21,6.3.05,7.48-.58,6.09-3.24,3.27-11.9,3.71-17.42l.06-.64-.64.06c-5.53.44-14.18-2.38-17.43,3.71-.63,1.18-.37,6.05-.58,7.47C34.29,370.94,34.26,371.08,34.24,371.22Zm-2.15,9.2c4.8-1.89,9.44-5.29,10.18-10.18C37.38,371,34,375.63,32.09,380.42Z" style="fill:#b6a893"/><path d="M31.18,381.42l-.17.09.08-.18v.11Z" style="fill:#b6a893"/></g></g></svg>