<?xml version="1.0" encoding="utf-8"?>
<!-- Generator: Adobe Illustrator 23.0.1, SVG Export Plug-In . SVG Version: 6.00 Build 0)  -->
<svg version="1.1" id="Layer_1" xmlns="http://www.w3.org/2000/svg" xmlns:xlink="http://www.w3.org/1999/xlink" x="0px" y="0px"
	 viewBox="0 0 1000 1000" style="enable-background:new 0 0 1000 1000;" xml:space="preserve">
<style type="text/css">
	.st0{clip-path:url(#SVGID_2_);fill:none;}
	.st1{clip-path:url(#SVGID_2_);fill:url(#Union_2_2_);}
	.st2{clip-path:url(#SVGID_2_);fill:url(#Path_51_2_);}
	.st3{clip-path:url(#SVGID_2_);fill:url(#Path_50_2_);}
	.st4{clip-path:url(#SVGID_2_);}
	.st5{fill:url(#Path_42_2_);}
	.st6{fill:url(#Path_43_2_);}
	.st7{fill:url(#Rectangle_9_2_);}
	.st8{fill:url(#Path_53_2_);}
	.st9{clip-path:url(#SVGID_2_);fill:url(#Path_54_2_);}
	.st10{clip-path:url(#SVGID_2_);fill:url(#Path_55_2_);}
	.st11{clip-path:url(#SVGID_2_);fill:url(#Ellipse_1_2_);}
	.st12{fill:#2E5FF6;}
	.st13{fill:none;stroke:url(#SVGID_3_);stroke-width:9.5508;}
</style>
<title>Asset 2</title>
<title>Asset 2</title>
<title>Asset 2</title>
<title>Asset 2</title>
<title>Asset 2</title>
<g>
	<g>
		<defs>
			<rect id="SVGID_1_" x="-0.8" y="0" width="1000" height="1000"/>
		</defs>
		<clipPath id="SVGID_2_">
			<use xlink:href="#SVGID_1_"  style="overflow:visible;"/>
		</clipPath>
		<path id="Path_41_1_" class="st0" d="M660.3,550.3c-6-1.5-11.9-3.5-17.5-6.1l-0.3,13.1C648.4,555.2,654.4,552.8,660.3,550.3z"/>
		<path id="Path_46_1_" class="st0" d="M473.2,493.1l35.9,1.1l21.9,0.7c3.3,0.1,6-2.5,6.1-5.7l0,0l1.8-59.4c0.1-3.3-2.5-6-5.7-6.1
			l-2.5-0.1l-10.6-0.3l0.4-11.5c0-1.2-0.9-2.3-2.2-2.3l-2-0.1c-1.2,0-2.3,0.9-2.3,2.2l0,0l-0.4,11.5L511,423l-35.9-1.1l-1.9-0.1
			l0.4-11.5c0-1.2-0.9-2.3-2.2-2.3l-2-0.1c-1.2,0-2.3,0.9-2.3,2.2l-0.4,11.5l-12.2-0.4l0,0h-0.9c-3.3-0.1-6,2.5-6.1,5.7l-1.8,59.4
			c-0.1,3.3,2.5,6,5.7,6.1l0,0L473.2,493.1z"/>
		<path id="Path_47_1_" class="st0" d="M473.1,496l-1.9,70.3c11.8,2.7,23.7,4.8,35.7,6.4l2-75.6L473.1,496z"/>
		<path id="Path_48_1_" class="st0" d="M724,397.3c-5.5,3.6-10.7,7.7-15.4,12.4c-8.7,8.5-10.8,18.2-5.8,29.8
			c6.2,14.1,11.6,28.6,17,43.1c1.3,3.4,1.1,7.2,1.7,10.9c-0.7,0.3-1.5,0.7-2.2,1c-2.4-2.2-5.7-3.9-7.2-6.6
			c-9.7-18.4-19.4-36.9-28.1-55.7c-3.8-8.3-1-17,2.9-25.1c1.1-2.3,2.5-4.6,4.4-8.1c-5.6,0.8-10,1.1-14.3,2.2
			c-1.2,0.3-2.5,2.6-2.7,4.1c-1.7,17.8-3.1,35.7-4.6,53.5c-0.6,6.6-1.3,13.1-1.7,19.7c-0.1,2.1,0.6,4.3,1,6.5
			c-0.7,3.9-1.8,7.9-2.1,11.8c-0.6,7-0.7,14.1-1,22.3l15.3-3.2h0.2c20.2-4.7,38.9-12.2,52.4-29c7.5-9.4,11-20.1,11-32
			c0-4.5-0.1-9-0.1-13.5l0,0c0.3-5.9,0.5-11.7,0.8-17.6l0,0c2.3-16.3,0.1-20.7-11.9-27.1C731.1,395.3,726.5,395.8,724,397.3z"/>
		
			<linearGradient id="Union_2_2_" gradientUnits="userSpaceOnUse" x1="-570.7249" y1="4272.8027" x2="-570.7249" y2="4271.8027" gradientTransform="matrix(60.58 0 0 -511.1128 35196.5117 2183945.5)">
			<stop  offset="0" style="stop-color:#255EF5"/>
			<stop  offset="1" style="stop-color:#8665FC"/>
		</linearGradient>
		<path id="Union_2_1_" class="st1" d="M601,89l51.3-27.8l-4,201.5l-5.5,281.6c-1.8-0.8-3.6-1.7-5.5-2.6
			c-6.5-3.3-12.7-6.8-18.6-10.4l0,0c5.9,3.6,12.1,7.1,18.6,10.4c1.9,0.9,3.7,1.8,5.5,2.6l-0.3,13.1c-17.7,6.6-35,11.8-50.8,14.9
			L601,89z M619,491.2c0-9.9-0.3-19.8-0.4-29.7l0,0C618.7,471.4,619,481.3,619,491.2L619,491.2z M619,454.8l0.1-1.3L619,454.8z
			 M619,453.5L619,453.5L619,453.5L619,453.5z M619.2,447.7c0.4-16.3,0.9-32.5,1.1-48.8C620.1,415.2,619.6,431.4,619.2,447.7
			L619.2,447.7z M599.9,361.7c4.6,6.5,8.9,13.3,13.9,19.5c4.1,4.7,6.4,10.8,6.5,17.1c0-6.3-2.3-12.3-6.5-17.1
			C608.8,375,604.5,368.2,599.9,361.7L599.9,361.7z M617.4,301.8c-2.2,6.7-4.3,13.4-6.2,20.2C613.1,315.2,615.2,308.5,617.4,301.8
			c1.1-3.5,2.5-6.8,4.2-10.1C619.9,295,618.6,298.3,617.4,301.8L617.4,301.8z"/>
		
			<linearGradient id="Path_51_2_" gradientUnits="userSpaceOnUse" x1="-577.5473" y1="4273.6934" x2="-577.5473" y2="4272.6934" gradientTransform="matrix(216.366 0 0 -454.856 125712.5 1944010.5)">
			<stop  offset="0" style="stop-color:#FF6480"/>
			<stop  offset="1" style="stop-color:#F22E63"/>
		</linearGradient>
		<path id="Path_51_1_" class="st2" d="M852.1,98.7c-3.4-3.6-6.9-4.4-11.5-1.5c-18.1,11.4-36.5,22.5-54.7,33.7
			c-6.5,4-12.8,8.4-19.5,12c-20.4,10.9-34.8,27.3-46,47.1c-2.6,4.5-5.4,8.9-8.2,13.2c-2,3.1-4,6.2-5.9,9.3c-1.2,2-2.6,4-4.2,5.8
			c-2.7,3.1-6,5.6-9.7,7.5c-5,2.5-8.9,8.4-11.6,13.7c-2.2,4.8-5.8,8.9-10.3,11.8c-1.9,1.2-3.8,2.2-5.9,3c-5.7,2.3-11.2,5.1-16.4,8.4
			l-5.5,281.6c5.6,2.6,11.5,4.6,17.5,6.1c38.6-16.1,77.3-37.3,104.8-55.4c4.3-10.5,4.3-21.7,5.5-32.7c0.3-2.2,0.7-4.4,1-6.6l0,0
			c1-12.9,2.1-25.9,3.1-38.8c-0.2-2.6-0.8-5.3-0.4-7.9c1.7-11.6-0.1-23.5-5.2-34.1c-1.3-2.9-0.8-6.7-0.6-10.1
			c0.3-4.5,1.1-8.9,1.7-13.4l0,0l-0.2-3.5l0,0c-2.5-11.4-4.2-23.1-7.8-34.1c-2.6-7.6-7.7-14.5-12-21.5c-5.4-8.7-7.5-18-7.5-28.2
			c-0.2-4.2-0.7-8.4-1.7-12.4c-0.3-1.7-0.7-3.4-0.9-5c-0.3-1.8-1-3.8-0.4-5.3c2.5-6.2,4.9-12.5,7.5-18.7c3.1-7.7,6.3-15.4,9.4-23.1
			l0,0c3.2-10.3,8.7-19.4,17.5-25.4c15.6-10.7,31.7-20.6,47.7-30.7c9.4-6,18.7-11.9,28.2-17.7c2.1-1.3,4.5-1.9,6.7-2.8l0,0
			C861.5,113.6,858.8,105.8,852.1,98.7z M745.4,423.7L745.4,423.7c-0.3,5.9-0.5,11.7-0.8,17.6l0,0c0,4.5,0.2,9,0.1,13.5
			c-0.1,11.9-3.5,22.6-11,32c-13.5,16.9-32.2,24.3-52.4,29h-0.2l-15.3,3.2c0.3-8.2,0.5-15.3,1-22.3c0.3-4,1.4-7.9,2.1-11.8
			c-0.4-2.2-1.1-4.4-1-6.5c0.4-6.6,1.1-13.1,1.7-19.7c1.5-17.8,3-35.7,4.6-53.5c0.1-1.5,1.5-3.8,2.7-4.1c4.3-1,8.7-1.4,14.3-2.2
			c-1.9,3.6-3.3,5.8-4.4,8.1c-3.9,8-6.7,16.8-2.9,25.1c8.7,18.9,18.4,37.3,28.1,55.7c1.4,2.7,4.7,4.4,7.2,6.6c0.7-0.3,1.5-0.7,2.2-1
			c-0.5-3.6-0.4-7.5-1.7-10.9c-5.4-14.5-10.8-29-17-43.1c-5.1-11.6-2.9-21.4,5.8-29.8c4.7-4.6,9.8-8.8,15.4-12.4
			c2.4-1.5,7.1-2,9.5-0.7C745.6,403,747.7,407.5,745.4,423.7z"/>
		
			<linearGradient id="Path_50_2_" gradientUnits="userSpaceOnUse" x1="-569.2665" y1="4303.165" x2="-569.2665" y2="4302.165" gradientTransform="matrix(52.502 0 0 -98.002 30249.5762 422157.8125)">
			<stop  offset="0" style="stop-color:#255EF5"/>
			<stop  offset="1" style="stop-color:#8665FC"/>
		</linearGradient>
		<path id="Path_50_1_" class="st3" d="M388.2,439.3l-51.3,27.8l-1.2,45.1c16.1,9,32.7,17.5,49.8,25.1L388.2,439.3z"/>
		<g id="Group_22_1_" transform="translate(-29.22 105.861)" class="st4">
			
				<linearGradient id="Path_42_2_" gradientUnits="userSpaceOnUse" x1="-455.1331" y1="4399.668" x2="-455.1331" y2="4398.668" gradientTransform="matrix(15.3443 0 0 -15.3438 7476.5483 67841.3984)">
				<stop  offset="0" style="stop-color:#255EF5"/>
				<stop  offset="1" style="stop-color:#8665FC"/>
			</linearGradient>
			<path id="Path_42_1_" class="st5" d="M493.1,334c-4.2-0.1-7.8,3.2-7.9,7.4s3.2,7.8,7.4,7.9s7.8-3.2,7.9-7.4l0,0
				C500.6,337.7,497.3,334.1,493.1,334L493.1,334z"/>
			
				<linearGradient id="Path_43_2_" gradientUnits="userSpaceOnUse" x1="-455.1254" y1="4399.6987" x2="-455.1254" y2="4398.6987" gradientTransform="matrix(15.3421 0 0 -15.3418 7532.8286 67834.9141)">
				<stop  offset="0" style="stop-color:#255EF5"/>
				<stop  offset="1" style="stop-color:#8665FC"/>
			</linearGradient>
			<path id="Path_43_1_" class="st6" d="M550,351c4.2,0.1,7.8-3.2,7.9-7.4c0.1-4.2-3.2-7.8-7.4-7.9s-7.8,3.2-7.9,7.4l0,0
				C542.5,347.3,545.8,350.9,550,351z"/>
			
				<linearGradient id="Rectangle_9_2_" gradientUnits="userSpaceOnUse" x1="1196.0548" y1="4154.2715" x2="1196.0548" y2="4153.271" gradientTransform="matrix(6.184620e-02 -2.1881 -85.8867 -2.4275 357201.1563 13063.0557)">
				<stop  offset="0" style="stop-color:#255EF5"/>
				<stop  offset="1" style="stop-color:#8665FC"/>
			</linearGradient>
			<polygon id="Rectangle_9_1_" class="st7" points="478.5,362.6 478.5,360.4 564.4,362.8 564.3,365 			"/>
			
				<linearGradient id="Path_53_2_" gradientUnits="userSpaceOnUse" x1="-488.6157" y1="4169.7329" x2="-488.6157" y2="4168.7334" gradientTransform="matrix(146.289 0 0 -368.3701 72002.5469 1536103.5)">
				<stop  offset="0" style="stop-color:#255EF5"/>
				<stop  offset="1" style="stop-color:#8665FC"/>
			</linearGradient>
			<path id="Path_53_1_" class="st8" d="M502.3,387.2l35.9,1.1l-2,75.6c16.7,2.2,33.6,3.2,50.4,2.9l10-368.3l-51.3,27.8l-5,184.8
				l-34.5-1.1l0.3-8.6c0-1.3-0.4-2.6-1.3-3.5l2.3-84.9l-51.3,27.8l-5.5,201.9c16.4,5.9,33.1,10.8,50.1,14.7L502.3,387.2z
				 M474.9,377.5l1.8-59.4c0.1-3.3,2.8-5.8,6.1-5.7h0.9l0,0l12.2,0.4l0.4-11.5c0-1.2,1.1-2.2,2.3-2.2l2,0.1c1.2,0,2.2,1.1,2.2,2.3
				l-0.4,11.5l1.9,0.1l35.9,1.1l2.6,0.1l0.4-11.5c0-1.2,1.1-2.2,2.3-2.2l0,0l2,0.1c1.2,0,2.2,1.1,2.2,2.3l-0.4,11.5l10.6,0.3
				l2.5,0.1c3.3,0.1,5.8,2.8,5.7,6.1l-1.8,59.4c-0.1,3.3-2.8,5.8-6.1,5.7l0,0l-21.9-0.7l-35.9-1.1l-21.7-0.7
				C477.4,383.5,474.8,380.8,474.9,377.5L474.9,377.5L474.9,377.5z"/>
		</g>
		
			<linearGradient id="Path_54_2_" gradientUnits="userSpaceOnUse" x1="-579.3267" y1="4276.7852" x2="-579.3267" y2="4275.7852" gradientTransform="matrix(657.284 0 0 -329.1372 381202.125 1408000.75)">
			<stop  offset="0" style="stop-color:#FF6480"/>
			<stop  offset="1" style="stop-color:#F22E63"/>
		</linearGradient>
		<path id="Path_54_1_" class="st9" d="M91.3,351.7c0,0,338,406,657.3,194.5C748.6,546.2,484.7,953.4,91.3,351.7z"/>
		
			<linearGradient id="Path_55_2_" gradientUnits="userSpaceOnUse" x1="-579.4035" y1="4283.981" x2="-579.4035" y2="4282.9805" gradientTransform="matrix(720.754 0 0 -200.284 418059.1563 858751.25)">
			<stop  offset="0" style="stop-color:#255EF5"/>
			<stop  offset="1" style="stop-color:#8665FC"/>
		</linearGradient>
		<path id="Path_55_1_" class="st10" d="M190.1,740.9c-27.3,0-50.6,9.7-69.7,29.1c-19.3,19.5-29,42.8-29,70c0,27.4,9.7,50.7,29,69.9
			c19.1,19.3,42.3,28.9,69.7,28.9c27.2,0,50.4-9.6,69.9-28.9c19.2-19.1,31.2-45.5,28.4-82H188.3v37.3h55.6
			c-9.7,20.8-30.5,34-53.4,34.1c-16.4,0-30.4-5.8-41.8-17.4c-11.3-11-17.6-26.2-17.4-41.9c-0.2-15.8,6.1-31,17.4-41.9
			c10.9-11.4,26-17.8,41.8-17.5c16,0,30,5.8,41.8,17.5l27.9-27.9c-18.6-18.5-43.8-28.9-70-28.9L190.1,740.9z M280,937.3h42.3
			l13.2-29.6h66.7l13.2,29.6h42.4l-89-198.8L280,937.3z M351,873.1l18-41.2l17.8,41.2H351z M467.5,742.5v38.8h74.9l-74.9,156h137.1
			v-38.9h-74.9l74.9-155.9H467.5z M713.1,740.9c-27.2,0-50.4,9.7-69.9,29.1c-19.3,19.5-29,42.8-29,70s9.7,50.5,29,69.9
			c19.3,19.1,42.5,28.7,69.9,28.8c27.2,0,50.5-9.6,69.9-28.8c19.4-19.3,29.1-42.5,29.1-69.9c0-27.2-9.7-50.6-29.1-70
			C763.5,750.6,740.2,740.9,713.1,740.9L713.1,740.9z M713.1,780.4c16.3,0,30.2,5.8,41.8,17.4c11.7,11.7,17.5,25.7,17.5,41.9
			c0.3,15.8-6.1,31-17.5,41.9c-11.7,11.5-25.6,17.3-41.8,17.3c-16.4,0-30.4-5.8-41.9-17.3c-11.3-11-17.6-26.2-17.4-41.9
			c0-16.2,5.8-30.2,17.4-41.9C682.6,786.2,696.6,780.4,713.1,780.4L713.1,780.4z"/>
		
			<linearGradient id="Ellipse_1_2_" gradientUnits="userSpaceOnUse" x1="-573.0247" y1="4311.6167" x2="-573.0247" y2="4310.6167" gradientTransform="matrix(80 0 0 -80 46555.0781 345730.4375)">
			<stop  offset="0" style="stop-color:#FF6480"/>
			<stop  offset="1" style="stop-color:#F22E63"/>
		</linearGradient>
		<circle id="Ellipse_1_1_" class="st11" cx="713.1" cy="841.1" r="40"/>
	</g>
	<g>
		<g>
			<path class="st12" d="M830.4,732.3c0,0.2,0,0.5-0.1,0.6c-0.1,0.2-0.3,0.3-0.7,0.4s-0.9,0.2-1.6,0.2c-0.7,0-1.6,0.1-2.8,0.1
				c-1,0-1.8,0-2.4-0.1s-1.1-0.1-1.4-0.3c-0.3-0.1-0.6-0.3-0.7-0.5c-0.1-0.2-0.3-0.4-0.4-0.7l-4.1-9.7c-0.5-1.1-1-2.1-1.5-2.9
				c-0.5-0.8-1-1.6-1.6-2.1c-0.6-0.6-1.2-1-2-1.3c-0.8-0.3-1.6-0.4-2.6-0.4h-2.9v16.5c0,0.2-0.1,0.4-0.2,0.6
				c-0.2,0.2-0.4,0.3-0.8,0.4c-0.4,0.1-0.8,0.2-1.4,0.3s-1.3,0.1-2.3,0.1c-0.9,0-1.6,0-2.3-0.1s-1.1-0.2-1.4-0.3
				c-0.4-0.1-0.6-0.3-0.7-0.4s-0.2-0.4-0.2-0.6v-39.4c0-1,0.3-1.7,0.8-2.1c0.5-0.4,1.2-0.7,2-0.7H811c1.2,0,2.2,0,3,0.1
				c0.8,0,1.5,0.1,2.1,0.2c1.8,0.2,3.5,0.7,5,1.3c1.5,0.6,2.7,1.4,3.8,2.4c1,1,1.8,2.1,2.4,3.5c0.5,1.3,0.8,2.9,0.8,4.6
				c0,1.5-0.2,2.8-0.6,4c-0.4,1.2-1,2.3-1.7,3.2c-0.8,0.9-1.7,1.8-2.8,2.4c-1.1,0.7-2.4,1.3-3.8,1.7c0.7,0.3,1.3,0.7,1.9,1.1
				s1.2,1,1.7,1.6c0.5,0.6,1,1.4,1.5,2.2c0.5,0.8,0.9,1.7,1.4,2.8l3.9,8.6c0.4,0.9,0.6,1.5,0.7,1.9S830.4,732.1,830.4,732.3z
				 M818.4,702.9c0-1.4-0.3-2.6-1-3.6c-0.7-1-1.8-1.7-3.4-2.1c-0.5-0.1-1-0.2-1.6-0.3s-1.4-0.1-2.5-0.1h-4.2v12.3h4.8
				c1.3,0,2.5-0.2,3.5-0.5c1-0.3,1.8-0.7,2.5-1.3c0.7-0.5,1.2-1.2,1.5-2C818.3,704.6,818.4,703.8,818.4,702.9z"/>
		</g>
		<linearGradient id="SVGID_3_" gradientUnits="userSpaceOnUse" x1="769.6512" y1="712.202" x2="854.3651" y2="712.202">
			<stop  offset="0" style="stop-color:#265EF5"/>
			<stop  offset="1" style="stop-color:#265EF5"/>
		</linearGradient>
		<circle class="st13" cx="812" cy="712.2" r="37.6"/>
	</g>
	<title>Asset 2</title>
</g>
</svg>
