<svg id="Layer_2" data-name="Layer 2" xmlns="http://www.w3.org/2000/svg" width="427.17" height="412.51" viewBox="0 0 427.17 412.51">
  <g id="Layer_1" data-name="Layer 1">
    <path id="Path_1" data-name="Path 1" d="M0,0H427.17V4.13h-64c-12,0-22.47,7.42-33.57,15.28-12,8.46-24.27,17.17-39.4,17.17a40.4,40.4,0,0,1-6.9-.6c-10.2-1.76-13.71-7.59-14.9-10.91a15.7,15.7,0,0,1,2.64-15.15,13.35,13.35,0,0,1,13-4c4.33.93,7.66,3.65,8.7,7.1.74,2.47.68,6.36-3.81,10.92a2.086,2.086,0,1,1-3-2.9c1.69-1.72,3.55-4.3,2.8-6.83-.6-2-2.79-3.64-5.61-4.24a9.25,9.25,0,0,0-9,2.66,11.61,11.61,0,0,0-1.88,11.05c1.08,3,4,6.9,11.72,8.24,16.7,2.89,30.16-6.65,43.2-15.88,6.16-4.36,12.44-8.8,19.07-11.9H4.14V346.29c3.1-6.64,7.54-12.92,11.86-19.08,9.22-13,18.77-26.5,15.87-43.2-1.33-7.72-5.21-10.63-8.23-11.71a11.63,11.63,0,0,0-11,1.87,9.27,9.27,0,0,0-2.66,9c.6,2.81,2.26,5,4.23,5.6,2.53.76,5.11-1.1,6.83-2.79a2.07,2.07,0,1,1,2.91,2.94c-4.56,4.49-8.46,4.55-10.93,3.81-3.45-1-6.17-4.36-7.09-8.69a13.37,13.37,0,0,1,4-13,15.71,15.71,0,0,1,15.15-2.64c3.32,1.19,9.16,4.71,10.92,14.91a40.23,40.23,0,0,1,.6,6.9c0,15.13-8.71,27.44-17.17,39.39-7.87,11.1-15.29,21.59-15.29,33.57v49.34H0Z" fill="#b6a893"/>
    <path id="Path_2" data-name="Path 2" d="M328.47,392.595c-12-.3-24,.27-36.08.37-.13,0-.13.2,0,.21h.16s0,.08.05.09c2.66,1,4.87,3,7,4.87,1.85,1.63,4,3.66,4.37,6.2a1.56,1.56,0,0,0,.93,1.28,1.19,1.19,0,0,0,1.48.1h.05a2.36,2.36,0,0,0,1-.59,103.8,103.8,0,0,1,21.41-9.85,1.36,1.36,0,0,0-.37-2.68Zm-35.26.63c9.46.56,18.89,1.36,28.35,1.81a106.312,106.312,0,0,0-14.18,6.95C305,396.615,298.48,394.625,293.21,393.225Z" transform="translate(0 -385.925)" fill="#b6a893"/>
    <path id="Path_3" data-name="Path 3" d="M13.58,182.2c-.77.86-1.2,2.06-1.93,3a14,14,0,0,1-2.37,2.38,1.78,1.78,0,0,1-2.74-.35,1.75,1.75,0,0,1,1-2.56,14.111,14.111,0,0,0,2.91-.8,7,7,0,0,0,2.96-1.76C13.5,181.947,13.68,182.107,13.58,182.2Z" transform="translate(0 42.403)" fill="#b6a893"/>
    <path id="Path_4" data-name="Path 4" d="M7.24,200.12c1.91-1.28,4.78-.85,7-1.55a16.32,16.32,0,0,0,7.54-4.62c.09-.1.23,0,.15.15-2,2.42-3.75,4.68-6.41,6.42-2.06,1.34-5.44,3.41-7.91,2.44a1.58,1.58,0,0,1-.37-2.84Z" transform="translate(0 15.39)" fill="#b6a893"/>
    <path id="Path_5" data-name="Path 5" d="M7.26,83.037a.81.81,0,0,0,0-.16.1.1,0,1,0-.2,0c-.11,12-.67,24-.38,36.08a1.37,1.37,0,0,0,2.67.36A104.371,104.371,0,0,1,19.19,97.9a2.38,2.38,0,0,0,.59-1h0a1.2,1.2,0,0,0-.09-1.49,1.58,1.58,0,0,0-1.29-.93c-2.54-.34-4.56-2.51-6.19-4.37-1.84-2.09-3.89-4.3-4.87-7C7.34,83.037,7.3,83.037,7.26,83.037Zm0,.65c1.4,5.27,3.39,11.78,8.76,14.18a104.591,104.591,0,0,0-6.91,14.17c-.45-9.42-1.25-18.85-1.8-28.31Z" transform="translate(0 209.473)" fill="#b6a893"/>
    <path id="Path_6" data-name="Path 6" d="M112.85,374.632c5.65-2.59,10-7.63,13.3-12.79a75.554,75.554,0,0,0,3.76-6.76c.91-1.84,1.29-3.48,3.15-4.47a1.38,1.38,0,0,1,2.05,1.17c.37,4.05-5.26,9.64-7.85,12.58A42.4,42.4,0,0,1,113,374.812C112.83,374.872,112.72,374.692,112.85,374.632Z" transform="translate(0 -312.752)" fill="#b6a893"/>
    <path id="Path_7" data-name="Path 7" d="M149.84,300.47l-10.58,1.85a1,1,0,0,0-.57,1.73l7.46,7.91a1.07,1.07,0,0,0,.75.32h.1l12.55-1.42a1,1,0,0,0,.57-1.8l-9.42-8.32a1.06,1.06,0,0,0-.86-.27Zm-.13,2.12,7.32,6.47-9.73,1.1-5.79-6.13Z" transform="translate(0 -200.229)" fill="#b6a893"/>
    <path id="Path_8" data-name="Path 8" d="M122.36,290.873c-4.35-1.32-8.9-5.15-12.1-8.32a53.861,53.861,0,0,1-9-12.27.11.11,0,0,1,.18-.11c2.84,4.54,7.44,7.75,11.83,10.64,3.53,2.32,7.75,4.1,11,6.82C125.75,288.9,124.15,291.413,122.36,290.873Z" transform="translate(0 -148.583)" fill="#b6a893"/>
    <path id="Path_9" data-name="Path 9" d="M96.21,278.691c-1.58,4.22-3.29,9.75-7.06,12.41-1.05.74-2.2-.48-2-1.53.79-4,4.44-7.42,6.41-11,3.07-5.54,5.18-11.56,4.93-18,0-.13.2-.13.21,0a41.65,41.65,0,0,1-2.49,18.12Z" transform="translate(0 -139.291)" fill="#b6a893"/>
    <path id="Path_10" data-name="Path 10" d="M57.44,259.887a1,1,0,0,0-1,.37l-6.7,8.39a1.07,1.07,0,0,0-.2.88l2.79,12.28a1.039,1.039,0,0,0,1.86.36l7.26-10.33a1,1,0,0,0,.19-.6,1.19,1.19,0,0,0,0-.32l-3.36-10.33A1,1,0,0,0,57.44,259.887Zm-.57,3.16,2.6,8-5.62,8-2.17-9.52Z" transform="translate(0 -129.967)" fill="#b6a893"/>
    <path id="Path_11" data-name="Path 11" d="M121.6,287.83a.1.1,0,1,1,.1-.17,54.09,54.09,0,0,1,12.28,9c3.17,3.21,7,7.75,8.31,12.11.54,1.78-2,3.39-3.24,1.89-2.71-3.21-4.49-7.43-6.81-11C129.35,295.27,126.14,290.68,121.6,287.83Z" transform="translate(0 -186.38)" fill="#b6a893"/>
    <path id="Path_12" data-name="Path 12" d="M75.81,295.121c.85,1.85-1.51,4.16-3,2.35-6.48-7.59-8.59-18.46-8.61-28.16,0-.13.2-.13.21,0C65.26,279.251,71.8,286.481,75.81,295.121Z" transform="translate(0 -154.831)" fill="#b6a893"/>
    <path id="Path_13" data-name="Path 13" d="M67.05,319.067c2.23,8.9,2.72,22.45,12.68,25.9,3.15,1.09,7.93.32,11.44-1.78,2.11-3.52,2.87-8.29,1.78-11.44C89.51,321.787,76,321.287,67.05,319.067Zm8.78,3.33c4,1.47,9.16,2.66,11.92,6.05a9.59,9.59,0,0,1,.84,11.4,5.087,5.087,0,0,1-.31.45c-.15.1-.28.21-.44.31a9.6,9.6,0,0,1-11.4-.84c-3.4-2.76-4.58-7.94-6-11.92-1-2.77-2-5.54-2.91-8.35C70.3,320.377,73.07,321.377,75.83,322.4Z" transform="translate(0 -252.017)" fill="#b6a893"/>
    <path id="Path_14" data-name="Path 14" d="M37.86,297.662c1-1.87,2.64-2.25,4.48-3.16a74.189,74.189,0,0,0,6.75-3.75c5.16-3.28,10.21-7.65,12.8-13.31,0-.12.23,0,.18.1a42.46,42.46,0,0,1-10.46,14.32c-2.94,2.59-8.53,8.22-12.58,7.84a1.37,1.37,0,0,1-1.17-2.04Z" transform="translate(0 -164.602)" fill="#b6a893"/>
    <path id="Path_15" data-name="Path 15" d="M205.67,225.587c-13.9,7.3-28.07,8.46-43.17,4.21-12.56-3.52-23.31-10.76-35.46-15.16-11.3-4.09-24.19-7-36.18-5.3-13.86,1.99-30.47,14.99-22.57,30.84,5.84,11.74,23.56,15.74,33.83,8.08,4.17-3.11,7-8,5.71-13.36-1.73-7.1-6.47-4.81-11.46-3-2.15.77-4.14-2-3-3.85,4.24-6.57,13.14-7.8,18.29-1.44s3.78,16.59-1.28,22.68a22.47,22.47,0,0,1-5.36,4.66,10.65,10.65,0,0,1,9,7.16c2,5.51.58,13.09-4.1,16.93,4.48,1.67,5.24,8.71,4.14,13.07a25,25,0,0,1-4.32,8.49,24.87,24.87,0,0,1-8.49,4.32c-4.35,1.09-11.39.33-13.06-4.15-3.84,4.69-11.43,6.11-16.94,4.1a10.61,10.61,0,0,1-7.15-9,22.37,22.37,0,0,1-4.67,5.37c-6.09,5.06-16.19,6.51-22.67,1.27s-5.14-14.05,1.43-18.29c1.85-1.19,4.63.81,3.85,3-1.8,5-4.09,9.73,3,11.45,5.36,1.3,10.26-1.54,13.36-5.7,7.66-10.27,3.66-28-8.07-33.84-15.86-7.9-28.87,8.75-30.85,22.58-1.71,12,1.22,24.87,5.31,36.17C29.22,329,36.46,339.747,40,352.327c4.24,15.1,3.08,29.27-4.22,43.16a.1.1,0,1,1-.17-.1c9.9-17.36,6.72-36.8-1.07-54.22-4.35-9.71-10.19-18.53-13.5-28.68-6.46-19.78-9.09-61,22.43-60.39,19.29.36,29.63,24.67,21.88,40.64,1,4.32,3.9,8,8.88,8.72,5.24.81,8.85-1.64,12.56-4.95a1.59,1.59,0,0,1,2.65,1.3c3.83,3.44,10.81,2.23,14.85-.25a9.429,9.429,0,0,0,1.86-1.59,8.9,8.9,0,0,0,1.59-1.87c2.49-4,3.7-11,.26-14.85a1.59,1.59,0,0,1-1.3-2.65c3.31-3.7,5.76-7.31,5-12.55-.77-5-4.41-7.89-8.73-8.89-16,7.76-40.28-2.59-40.64-21.87-.59-31.53,40.61-28.89,60.39-22.44,10.16,3.31,19,9.16,28.68,13.5,17.42,7.79,36.86,11,54.22,1.07C205.68,225.327,205.79,225.527,205.67,225.587Z" transform="translate(0 -189.817)" fill="#b6a893"/>
    <path id="Path_16" data-name="Path 16" d="M101.17,317.179a3.86,3.86,0,0,1-3.08,1.42,4.24,4.24,0,0,1-4.17-4.16,4.9,4.9,0,0,1,4.51-4.52,4.24,4.24,0,0,1,4.17,4.17A3.92,3.92,0,0,1,101.17,317.179Z" transform="translate(0 -216.009)" fill="#b6a893"/>
    <path id="Path_17" data-name="Path 17" d="M31.93,403.9a21.48,21.48,0,0,1-4.76,4,.2.2,0,0,1-.27-.27,19.53,19.53,0,0,0,2.27-5.34C29.82,399.771,33.8,401.781,31.93,403.9Z" transform="translate(0 -396.531)" fill="#b6a893"/>
    <path id="Path_18" data-name="Path 18" d="M109.91,274.066a1,1,0,0,0,.72-.87l1.42-12.56v-.11a1,1,0,0,0-.32-.76l-7.9-7.46a1.007,1.007,0,0,0-1.69.58l-1.86,10.58a1,1,0,0,0,.25.86l8.34,9.44A1,1,0,0,0,109.91,274.066Zm-1.08-3.42-6.46-7.32,1.43-8.19,6.13,5.78Z" transform="translate(0 -113.626)" fill="#b6a893"/>
    <path id="Path_19" data-name="Path 19" d="M22.33,341.719c0,.13-.2.13-.21,0-.92-10.62,7.66-19.92,18.27-20.42,9.79-.45,19.65,8.12,17.35,18.37-.74,3.3-5.58,2.4-5.71-.78-.32-7.66-4.09-13.61-12.65-13.52C31,325.449,22.36,333.179,22.33,341.719Z" transform="translate(0 -250.589)" fill="#b6a893"/>
    <path id="Path_20" data-name="Path 20" d="M25.12,334.534c-4.07-13.38,19.23-21.38,24.09-8.38,1.32,3.53-5,5.25-5.61,1.55-.88-4.92-7.3-4.65-11-3.37a10.27,10.27,0,0,0-7.27,10.19C25.32,334.624,25.16,334.634,25.12,334.534Z" transform="translate(0 -241.644)" fill="#b6a893"/>
    <path id="Path_21" data-name="Path 21" d="M140.3,348.177c-8.64-4-15.88-10.55-25.81-11.44a.105.105,0,0,1,0-.21c9.69,0,20.56,2.13,28.16,8.61C144.45,346.677,142.14,349.037,140.3,348.177Z" transform="translate(0 -272.377)" fill="#b6a893"/>
    <path id="Path_22" data-name="Path 22" d="M121.35,325.234a.1.1,0,1,1,0-.2c6.39.25,12.42-1.87,18-4.94,3.56-2,7-5.61,11-6.41,1.06-.21,2.28.95,1.54,2-2.66,3.76-8.2,5.47-12.41,7.05A41.5,41.5,0,0,1,121.35,325.234Z" transform="translate(0 -226.534)" fill="#b6a893"/>
    <path id="Path_23" data-name="Path 23" d="M152.21,355.568a1,1,0,0,0-.37-1.81l-12.28-2.87a1,1,0,0,0-.87.2l-8.4,6.7a1,1,0,0,0-.37,1,1.06,1.06,0,0,0,.7.8l10.38,3.39a1.129,1.129,0,0,0,.32.05,1.06,1.06,0,0,0,.59-.19Zm-3.1-.35-8,5.63-8-2.61,6.5-5.18Z" transform="translate(0 -301.378)" fill="#b6a893"/>
    <path id="Path_24" data-name="Path 24" d="M11.05,306.241c-8-6.86-4.8-21.41-1.48-30,4.77-12.42,13.77-22.78,19.52-34.57a14.74,14.74,0,0,1-5.91,2.21C10.72,245.811,5.7,232,11.06,223.211a21.13,21.13,0,0,0-4.15-16.8c-3.41-4.19,3.38-8.81,5.64-4.35a22.57,22.57,0,0,1,1.69,17.49,13.609,13.609,0,0,1,2.06-1.36c14.52-7.78,13.37,15.78,3.7,8.62-.11-.08,0-.25.1-.18q-6-6.38-7.11-.19-3.69,6.48,2.55,13.32c5.15,3.53,12.18-.61,14.92-4.82s3.52-9.72,3.13-14.69c-.76-9.72-5.52-18.86-10-27.34-7.29-13.9-17.8-28.76-17.89-45.07,0-2.76,4.09-2.71,4.27,0,1.39,21.49,16.8,38.88,23.86,58.61,3.27,9.16,5.17,26.08-2.83,33.71a132.6,132.6,0,0,1-9.57,19.9c-4,7.07-7.94,14.3-9.63,22.31-1.82,8.62,1.21,14.8,1.44,23a1.28,1.28,0,0,1-2.19.87Z" transform="translate(0 -39.901)" fill="#b6a893"/>
    <path id="Path_25" data-name="Path 25" d="M219.53,400.492c.77-1.69,1-3.54,1.75-5.21.85-1.88,3.62-.49,3.19,1.34-1,4.27-5.33,6.74-8.45,9.28a.1.1,0,0,1-.13-.16,13.88,13.88,0,0,0,3.64-5.25Z" transform="translate(0 -387.802)" fill="#b6a893"/>
    <path id="Path_26" data-name="Path 26" d="M212.05,389.525c-.19,6.1-2.6,10.64-6.36,15.26a.1.1,0,0,1-.16-.13c3.07-4.05,3.74-9.75,2.72-14.62a1.94,1.94,0,0,1,.5-1.88l.47-.39a1.12,1.12,0,0,1,1.29-.17l.58.26a1.88,1.88,0,0,1,.96,1.67Z" transform="translate(0 -379.775)" fill="#b6a893"/>
    <path id="Path_27" data-name="Path 27" d="M17.13,243.729a.1.1,0,1,1-.18-.1c.7-1.41,1-2.7,2.11-3.91a6.11,6.11,0,0,1,4.38-2c2.68-.27,2.78,4.26,0,4.25C21.51,241.969,18.37,241.929,17.13,243.729Z" transform="translate(0 -68.979)" fill="#b6a893"/>
    <path id="Path_28" data-name="Path 28" d="M218.35,391.663c1,2.46-1.09,5.85-2.44,7.9-1.74,2.66-4,4.43-6.42,6.42-.1.08-.25-.07-.14-.15a16.4,16.4,0,0,0,4.62-7.54c.7-2.22.26-5.1,1.55-7a1.57,1.57,0,0,1,2.83.37Z" transform="translate(0 -384.053)" fill="#b6a893"/>
    <path id="Path_29" data-name="Path 29" d="M220.16,391.554a131.75,131.75,0,0,1-19.9,9.58c-7.62,8.05-24.54,6.14-33.71,2.86-19.73-7.05-37.11-22.47-58.6-23.86-2.72-.17-2.77-4.28,0-4.27,16.3.09,31.16,10.6,45.06,17.9,8.49,4.45,17.62,9.21,27.35,10,5,.39,10.44-.34,14.69-3.12s8.35-9.77,4.82-14.93q-6.84-6.24-13.32-2.54-6.18,1.08.19,7.11c-.08-.12.1-.21.17-.11,7.16,9.69-16.37,10.84-8.59-3.67a14.507,14.507,0,0,1,1.36-2.07,22.55,22.55,0,0,1-17.48-1.75c-4.46-2.26.16-9,4.34-5.63a21.14,21.14,0,0,0,16.73,4.15c8.79-5.36,22.61-.35,20.68,12.11a14.83,14.83,0,0,1-2.21,5.91c11.79-5.74,22.15-14.74,34.57-19.52,8.62-3.32,23.17-6.5,30,1.49a1.28,1.28,0,0,1-.89,2.15c-8.18-.23-14.36-3.26-23-1.44C234.47,383.624,227.23,387.6,220.16,391.554Z" transform="translate(0 -370.174)" fill="#b6a893"/>
    <path id="Path_30" data-name="Path 30" d="M7.48,193.425c1.67-.76,3.52-1,5.21-1.74a14,14,0,0,0,5.25-3.64.1.1,0,0,1,.16.12c-2.53,3.12-5,7.45-9.27,8.45C7,197.045,5.6,194.285,7.48,193.425Z" transform="translate(0 27.845)" fill="#b6a893"/>
    <path id="Path_31" data-name="Path 31" d="M25,200.637c-4.62,3.77-9.16,6.17-15.26,6.37a1.89,1.89,0,0,1-1.67-1c-.08-.19-.17-.39-.26-.58a1.14,1.14,0,0,1,.19-1.25l.39-.48a1.93,1.93,0,0,1,1.89-.49c4.87,1,10.56.35,14.62-2.73A.094.094,0,1,1,25,200.637Z" transform="translate(0 5.043)" fill="#b6a893"/>
    <path id="Path_32" data-name="Path 32" d="M5.6,382.021c2.74-2.47,6.21-5.55,7.78-8.93,0-.11.23,0,.19.08-.76,1.79-1.18,3.72-1.94,5.53a25.051,25.051,0,0,1-3.29,5.43C6.75,386.2,3.78,383.651,5.6,382.021Z" transform="translate(0 -345.441)" fill="#b6a893"/>
    <path id="Path_33" data-name="Path 33" d="M8.37,381.424c2-6.19,6.16-11.59,8.06-17.92,0-.13.24-.08.2.05-1.68,6.25-1.46,13.62-4.9,19.28C10.68,384.574,7.7,383.464,8.37,381.424Z" transform="translate(0 -334.614)" fill="#b6a893"/>
    <path id="Path_34" data-name="Path 34" d="M21.05,356.769a.105.105,0,0,1,.21,0c-.05,9.11-.11,17.9-2.7,26.72-.74,2.52-4.77,1.4-3.93-1.09C17.44,374.069,20.4,365.579,21.05,356.769Z" transform="translate(0 -329.069)" fill="#b6a893"/>
    <path id="Path_35" data-name="Path 35" d="M229.62,399.195a1.78,1.78,0,0,1,.35,2.74,14.881,14.881,0,0,1-2.39,2.37c-.91.72-2.12,1.16-3,1.92a.1.1,0,0,1-.12-.16,7,7,0,0,0,1.77-2.91,14,14,0,0,0,.8-2.92,1.76,1.76,0,0,1,2.59-1.04Z" transform="translate(0 -392.685)" fill="#b6a893"/>
    <path id="Path_36" data-name="Path 36" d="M5.77,382.39a19.529,19.529,0,0,0,5.34-2.27.19.19,0,0,1,.26.26,20.74,20.74,0,0,1-4,4.76C5.25,387.01,3.25,383.04,5.77,382.39Z" transform="translate(0 -353.22)" fill="#b6a893"/>
    <path id="Path_37" data-name="Path 37" d="M27.65,407.289c3.39-1.57,6.46-5,8.93-7.78,1.63-1.81,4.18,1.15,2.12,2.74a24.351,24.351,0,0,1-5.44,3.29c-1.8.77-3.73,1.19-5.53,1.94C27.62,407.529,27.55,407.339,27.65,407.289Z" transform="translate(0 -393.919)" fill="#b6a893"/>
    <path id="Path_38" data-name="Path 38" d="M89.6,392.595c-12-.3-24,.27-36.08.37a.11.11,0,1,0,0,.21h.16v.09c2.66,1,4.87,3,7,4.87,1.86,1.63,4,3.66,4.37,6.2a1.56,1.56,0,0,0,.93,1.28,1.19,1.19,0,0,0,1.48.1h.06a2.38,2.38,0,0,0,1-.59A103.642,103.642,0,0,1,90,395.255a1.36,1.36,0,0,0-.4-2.66Zm-35.27.63c9.46.56,18.89,1.36,28.36,1.81a106.423,106.423,0,0,0-14.19,6.95c-2.39-5.37-8.9-7.36-14.17-8.76Z" transform="translate(0 -385.925)" fill="#b6a893"/>
    <path id="Path_39" data-name="Path 39" d="M48.23,399.344c-5.66,3.44-13,3.21-19.28,4.9-.13,0-.18-.17-.06-.2,6.33-1.9,11.74-6.05,17.92-8.07C48.85,395.314,50,398.294,48.23,399.344Z" transform="translate(0 -387.614)" fill="#b6a893"/>
    <path id="Path_40" data-name="Path 40" d="M28.53,386.357a93.68,93.68,0,0,0,30.73-2.06c3.71-.87,4.49,4.8.7,5.14a88.511,88.511,0,0,1-31.46-2.88.1.1,0,0,1,.03-.2Z" transform="translate(0 -361.477)" fill="#b6a893"/>
    <path id="Path_41" data-name="Path 41" d="M92.87,363.833a10.29,10.29,0,0,0-10.2,7.26c-1.28,3.72-1.54,10.15,3.38,11,3.7.66,2,6.94-1.55,5.61-12.94-4.86-5-28.16,8.39-24.08C93,363.673,93,363.843,92.87,363.833Z" transform="translate(0 -338.523)" fill="#b6a893"/>
    <path id="Path_42" data-name="Path 42" d="M18.42,333.237c-2.54-.35-4.56-2.52-6.19-4.37-1.84-2.1-3.89-4.3-4.87-7h-.1a.86.86,0,0,0,0-.16.1.1,0,1,0-.2,0c-.11,12-.67,24-.38,36.08a1.37,1.37,0,0,0,2.67.36,104.61,104.61,0,0,1,9.83-21.45,2.27,2.27,0,0,0,.59-1,.13.13,0,0,0,0-.05,1.19,1.19,0,0,0-.09-1.48,1.56,1.56,0,0,0-1.26-.93Zm-2.35,3.46a105.167,105.167,0,0,0-7,14.18c-.45-9.46-1.25-18.89-1.8-28.36C8.71,327.787,10.7,334.287,16.07,336.7Z" transform="translate(0 -268.187)" fill="#b6a893"/>
    <path id="Path_43" data-name="Path 43" d="M15.69,400.1a6.5,6.5,0,0,0,4.22-.94,6.43,6.43,0,0,0,.94-4.23,4.32,4.32,0,0,0-2.24-3,3.28,3.28,0,0,0-3.06.14,10,10,0,0,0-1.5,1.25,8.931,8.931,0,0,0-1.24,1.5,3.28,3.28,0,0,0-.15,3.06,4.39,4.39,0,0,0,3.03,2.22Zm-1.16-4.68a4.36,4.36,0,0,1,.29-1.35,4.44,4.44,0,0,1,1.36-.3c1.27,0,1.06,1.23.66,2.31C15.75,396.486,14.53,396.686,14.53,395.416Z" transform="translate(0 -379.246)" fill="#b6a893"/>
    <path id="Path_44" data-name="Path 44" d="M27.7,397.792c8.84-.66,17.31-3.61,25.64-6.43,2.48-.83,3.6,3.19,1.08,3.93-8.82,2.59-17.6,2.66-26.72,2.71C27.57,398,27.57,397.8,27.7,397.792Z" transform="translate(0 -376.742)" fill="#b6a893"/>
    <path id="Path_45" data-name="Path 45" d="M173,393.522c0,2.78-4.51,2.69-4.25,0a6.17,6.17,0,0,1,2-4.38c1.21-1.1,2.51-1.4,3.91-2.11a.11.11,0,0,1,.11.18C173,388.462,173,391.6,173,393.522Z" transform="translate(0 -370.092)" fill="#b6a893"/>
    <path id="Path_46" data-name="Path 46" d="M88.31,384.4c3.18.13,4.07,5,.77,5.72-10.25,2.29-18.82-7.57-18.36-17.35.49-10.62,9.85-19.2,20.41-18.27a.11.11,0,0,1,0,.21c-8.54,0-16.26,8.67-16.35,17.05C74.7,380.314,80.64,384.094,88.31,384.4Z" transform="translate(0 -332.384)" fill="#b6a893"/>
    <path id="Path_47" data-name="Path 47" d="M9.16,404.11a58.291,58.291,0,0,1,16.84.25,57.58,57.58,0,0,1-.25-16.79c.07-.53-.52-1-1-1-5.28,0-10.47.43-15.69.86-.42,5.22-.85,10.41-.85,15.68A1,1,0,0,0,9.16,404.11Zm.89-2.19a126.259,126.259,0,0,1-.71-14.17,126.221,126.221,0,0,1,14.16.72,47.16,47.16,0,0,0-.9,12.54,47.28,47.28,0,0,0-12.55.92Z" transform="translate(0 -378.42)" fill="#b6a893"/>
    <path id="Path_48" data-name="Path 48" d="M22.82,380.91a93.42,93.42,0,0,0,2.06-30.75.105.105,0,0,1,.21,0A88.69,88.69,0,0,1,28,381.6C27.63,385.4,22,384.62,22.82,380.91Z" transform="translate(0 -321.65)" fill="#b6a893"/>
    <path id="Path_49" data-name="Path 49" d="M46.69,357.73a63.52,63.52,0,0,1-17.83-3,63.46,63.46,0,0,1,3.05,17.82c.09,2.95-.6,6,1.82,8.28,2.1,1.93,5.28,1.6,7.87,1.57,5.44-.07,10.79.82,16.14,1.2-.39-5.35-1.27-10.69-1.2-16.13,0-2.59.35-5.78-1.58-7.88C52.73,357.12,49.63,357.81,46.69,357.73Zm-12.45,9.38c.22.3.42.61.68.91,2.76,3.19,7.24,5.37,11.46,4.17,1.2-4.22-1-8.69-4.18-11.45a9.789,9.789,0,0,0-.91-.68l.42.07c1.43.21,6.3-.05,7.48.58,6.09,3.24,3.27,11.9,3.71,17.42l.06.64-.64-.06c-5.53-.44-14.18,2.38-17.43-3.71-.63-1.18-.37-6.05-.58-7.47-.02-.14-.05-.28-.07-.42Zm-2.15-9.2c4.8,1.89,9.44,5.29,10.18,10.18-4.89-.76-8.27-5.39-10.18-10.18Z" transform="translate(0 -325.82)" fill="#b6a893"/>
    <path id="Path_50" data-name="Path 50" d="M31.18,381.42l-.17-.09.08.18v-.11Z" transform="translate(0 -350.33)" fill="#b6a893"/>
  </g>
</svg>
