<svg id="Layer_2" data-name="Layer 2" xmlns="http://www.w3.org/2000/svg" width="427.17" height="412.51" viewBox="0 0 427.17 412.51">
  <g id="Layer_1" data-name="Layer 1" transform="translate(0)">
    <path id="Path_1" data-name="Path 1" d="M427.17,0H0V4.13H64c12,0,22.47,7.42,33.57,15.28,12,8.46,24.27,17.17,39.4,17.17a40.4,40.4,0,0,0,6.9-.6c10.2-1.76,13.71-7.59,14.9-10.91a15.7,15.7,0,0,0-2.64-15.15,13.35,13.35,0,0,0-13-4c-4.33.93-7.66,3.65-8.7,7.1-.74,2.47-.68,6.36,3.81,10.92a2.086,2.086,0,1,0,3-2.9c-1.69-1.72-3.55-4.3-2.8-6.83.6-2,2.79-3.64,5.61-4.24a9.25,9.25,0,0,1,9,2.66,11.61,11.61,0,0,1,1.88,11.05c-1.08,3-4,6.9-11.72,8.24-16.7,2.89-30.16-6.65-43.2-15.88-6.16-4.36-12.44-8.8-19.07-11.9H423.03V346.29c-3.1-6.64-7.54-12.92-11.86-19.08-9.22-13-18.77-26.5-15.87-43.2,1.33-7.72,5.21-10.63,8.23-11.71a11.63,11.63,0,0,1,11,1.87,9.27,9.27,0,0,1,2.66,9c-.6,2.81-2.26,5-4.23,5.6-2.53.76-5.11-1.1-6.83-2.79a2.07,2.07,0,1,0-2.91,2.94c4.56,4.49,8.46,4.55,10.93,3.81,3.45-1,6.17-4.36,7.09-8.69a13.37,13.37,0,0,0-4-13,15.71,15.71,0,0,0-15.15-2.64c-3.32,1.19-9.16,4.71-10.92,14.91a40.231,40.231,0,0,0-.6,6.9c0,15.13,8.71,27.44,17.17,39.39,7.87,11.1,15.29,21.59,15.29,33.57v49.34h4.14Z" transform="translate(0)" fill="#b6a893"/>
    <path id="Path_2" data-name="Path 2" d="M293.7,392.595c12-.3,24,.27,36.08.37.13,0,.13.2,0,.21h-.16s0,.08-.05.09c-2.66,1-4.87,3-7,4.87-1.85,1.63-4,3.66-4.37,6.2a1.56,1.56,0,0,1-.93,1.28,1.19,1.19,0,0,1-1.48.1h-.05a2.36,2.36,0,0,1-1-.59,103.8,103.8,0,0,0-21.41-9.85,1.36,1.36,0,0,1,.37-2.68Zm35.26.63c-9.46.56-18.89,1.36-28.35,1.81a106.312,106.312,0,0,1,14.18,6.95C317.168,396.615,323.688,394.625,328.958,393.225Z" transform="translate(-194.998 -385.925)" fill="#b6a893"/>
    <path id="Path_3" data-name="Path 3" d="M6.329,182.2c.77.86,1.2,2.06,1.93,3a14,14,0,0,0,2.37,2.38,1.78,1.78,0,0,0,2.74-.35,1.75,1.75,0,0,0-1-2.56,14.111,14.111,0,0,1-2.91-.8,7,7,0,0,1-2.96-1.76C6.409,181.947,6.229,182.107,6.329,182.2Z" transform="translate(407.261 42.403)" fill="#b6a893"/>
    <path id="Path_4" data-name="Path 4" d="M21.221,200.12c-1.91-1.28-4.78-.85-7-1.55a16.32,16.32,0,0,1-7.54-4.62c-.09-.1-.23,0-.15.15,2,2.42,3.75,4.68,6.41,6.42,2.06,1.34,5.44,3.41,7.91,2.44a1.58,1.58,0,0,0,.37-2.84Z" transform="translate(398.709 15.39)" fill="#b6a893"/>
    <path id="Path_5" data-name="Path 5" d="M19.335,83.037a.81.81,0,0,1,0-.16.1.1,0,1,1,.2,0c.11,12,.67,24,.38,36.08a1.37,1.37,0,0,1-2.67.36A104.371,104.371,0,0,0,7.4,97.9a2.38,2.38,0,0,1-.59-1h0a1.2,1.2,0,0,1,.09-1.49,1.58,1.58,0,0,1,1.29-.93c2.54-.34,4.56-2.51,6.19-4.37,1.84-2.09,3.89-4.3,4.87-7C19.255,83.037,19.295,83.037,19.335,83.037Zm0,.65c-1.4,5.27-3.39,11.78-8.76,14.18a104.591,104.591,0,0,1,6.91,14.17c.45-9.42,1.25-18.85,1.8-28.31Z" transform="translate(400.575 209.473)" fill="#b6a893"/>
    <path id="Path_6" data-name="Path 6" d="M135.07,374.632c-5.65-2.59-10-7.63-13.3-12.79a75.554,75.554,0,0,1-3.76-6.76c-.91-1.84-1.29-3.48-3.15-4.47a1.38,1.38,0,0,0-2.05,1.17c-.37,4.05,5.26,9.64,7.85,12.58a42.4,42.4,0,0,0,14.26,10.45C135.09,374.872,135.2,374.692,135.07,374.632Z" transform="translate(179.25 -312.752)" fill="#b6a893"/>
    <path id="Path_7" data-name="Path 7" d="M149.048,300.47l10.58,1.85a1,1,0,0,1,.57,1.73l-7.46,7.91a1.07,1.07,0,0,1-.75.32h-.1l-12.55-1.42a1,1,0,0,1-.57-1.8l9.42-8.32a1.06,1.06,0,0,1,.86-.27Zm.13,2.12-7.32,6.47,9.73,1.1,5.79-6.13Z" transform="translate(128.282 -200.229)" fill="#b6a893"/>
    <path id="Path_8" data-name="Path 8" d="M103.749,290.873c4.35-1.32,8.9-5.15,12.1-8.32a53.861,53.861,0,0,0,9-12.27.11.11,0,0,0-.18-.11c-2.84,4.54-7.44,7.75-11.83,10.64-3.53,2.32-7.75,4.1-11,6.82C100.359,288.9,101.959,291.413,103.749,290.873Z" transform="translate(201.061 -148.583)" fill="#b6a893"/>
    <path id="Path_9" data-name="Path 9" d="M89.767,278.691c1.58,4.22,3.29,9.75,7.06,12.41,1.05.74,2.2-.48,2-1.53-.79-4-4.44-7.42-6.41-11-3.07-5.54-5.18-11.56-4.93-18,0-.13-.2-.13-.21,0a41.65,41.65,0,0,0,2.49,18.12Z" transform="translate(241.193 -139.291)" fill="#b6a893"/>
    <path id="Path_10" data-name="Path 10" d="M53.727,259.887a1,1,0,0,1,1,.37l6.7,8.39a1.07,1.07,0,0,1,.2.88l-2.79,12.28a1.039,1.039,0,0,1-1.86.36l-7.26-10.33a1,1,0,0,1-.19-.6,1.19,1.19,0,0,1,0-.32l3.36-10.33A1,1,0,0,1,53.727,259.887Zm.57,3.16-2.6,8,5.62,8,2.17-9.52Z" transform="translate(316.003 -129.967)" fill="#b6a893"/>
    <path id="Path_11" data-name="Path 11" d="M142.3,287.83a.1.1,0,1,0-.1-.17,54.09,54.09,0,0,0-12.28,9c-3.17,3.21-7,7.75-8.31,12.11-.54,1.78,2,3.39,3.24,1.89,2.71-3.21,4.49-7.43,6.81-11C134.55,295.27,137.76,290.68,142.3,287.83Z" transform="translate(163.27 -186.38)" fill="#b6a893"/>
    <path id="Path_12" data-name="Path 12" d="M64.38,295.121c-.85,1.85,1.51,4.16,3,2.35,6.48-7.59,8.59-18.46,8.61-28.16,0-.13-.2-.13-.21,0C74.93,279.251,68.39,286.481,64.38,295.121Z" transform="translate(286.98 -154.831)" fill="#b6a893"/>
    <path id="Path_13" data-name="Path 13" d="M93.445,319.067c-2.23,8.9-2.72,22.45-12.68,25.9-3.15,1.09-7.93.32-11.44-1.78-2.11-3.52-2.87-8.29-1.78-11.44C70.985,321.787,84.5,321.287,93.445,319.067Zm-8.78,3.33c-4,1.47-9.16,2.66-11.92,6.05a9.59,9.59,0,0,0-.84,11.4,5.087,5.087,0,0,0,.31.45c.15.1.28.21.44.31a9.6,9.6,0,0,0,11.4-.84c3.4-2.76,4.58-7.94,6-11.92,1-2.77,2-5.54,2.91-8.35C90.2,320.377,87.425,321.377,84.665,322.4Z" transform="translate(266.675 -252.017)" fill="#b6a893"/>
    <path id="Path_14" data-name="Path 14" d="M61.9,297.662c-1-1.87-2.64-2.25-4.48-3.16a74.19,74.19,0,0,1-6.75-3.75c-5.16-3.28-10.21-7.65-12.8-13.31,0-.12-.23,0-.18.1a42.46,42.46,0,0,0,10.46,14.32c2.94,2.59,8.53,8.22,12.58,7.84a1.37,1.37,0,0,0,1.17-2.04Z" transform="translate(327.408 -164.602)" fill="#b6a893"/>
    <path id="Path_15" data-name="Path 15" d="M17.018,225.587c13.9,7.3,28.07,8.46,43.17,4.21,12.56-3.52,23.31-10.76,35.46-15.16,11.3-4.09,24.19-7,36.18-5.3,13.86,1.99,30.47,14.99,22.57,30.84-5.84,11.74-23.56,15.74-33.83,8.08-4.17-3.11-7-8-5.71-13.36,1.73-7.1,6.47-4.81,11.46-3,2.15.77,4.14-2,3-3.85-4.24-6.57-13.14-7.8-18.29-1.44s-3.78,16.59,1.28,22.68a22.47,22.47,0,0,0,5.36,4.66,10.65,10.65,0,0,0-9,7.16c-2,5.51-.58,13.09,4.1,16.93-4.48,1.67-5.24,8.71-4.14,13.07a25,25,0,0,0,4.32,8.49,24.87,24.87,0,0,0,8.49,4.32c4.35,1.09,11.39.33,13.06-4.15,3.84,4.69,11.43,6.11,16.94,4.1a10.61,10.61,0,0,0,7.15-9,22.37,22.37,0,0,0,4.67,5.37c6.09,5.06,16.19,6.51,22.67,1.27s5.14-14.05-1.43-18.29c-1.85-1.19-4.63.81-3.85,3,1.8,5,4.09,9.73-3,11.45-5.36,1.3-10.26-1.54-13.36-5.7-7.66-10.27-3.66-28,8.07-33.84,15.86-7.9,28.87,8.75,30.85,22.58,1.71,12-1.22,24.87-5.31,36.17-4.43,12.12-11.67,22.87-15.21,35.45-4.24,15.1-3.08,29.27,4.22,43.16a.1.1,0,1,0,.17-.1c-9.9-17.36-6.72-36.8,1.07-54.22,4.35-9.71,10.19-18.53,13.5-28.68,6.46-19.78,9.09-61-22.43-60.39-19.29.36-29.63,24.67-21.88,40.64-1,4.32-3.9,8-8.88,8.72-5.24.81-8.85-1.64-12.56-4.95a1.59,1.59,0,0,0-2.65,1.3c-3.83,3.44-10.81,2.23-14.85-.25a9.429,9.429,0,0,1-1.86-1.59,8.9,8.9,0,0,1-1.59-1.87c-2.49-4-3.7-11-.26-14.85a1.59,1.59,0,0,0,1.3-2.65c-3.31-3.7-5.76-7.31-5-12.55.77-5,4.41-7.89,8.73-8.89,16,7.76,40.28-2.59,40.64-21.87.59-31.53-40.61-28.89-60.39-22.44-10.16,3.31-19,9.16-28.68,13.5-17.42,7.79-36.86,11-54.22,1.07C17.008,225.327,16.9,225.527,17.018,225.587Z" transform="translate(204.482 -189.817)" fill="#b6a893"/>
    <path id="Path_16" data-name="Path 16" d="M95.35,317.179a3.86,3.86,0,0,0,3.08,1.42,4.24,4.24,0,0,0,4.17-4.16,4.9,4.9,0,0,0-4.51-4.52,4.24,4.24,0,0,0-4.17,4.17A3.92,3.92,0,0,0,95.35,317.179Z" transform="translate(230.65 -216.009)" fill="#b6a893"/>
    <path id="Path_17" data-name="Path 17" d="M27.373,403.9a21.48,21.48,0,0,0,4.76,4,.2.2,0,0,0,.27-.27,19.53,19.53,0,0,1-2.27-5.34C29.483,399.771,25.5,401.781,27.373,403.9Z" transform="translate(367.868 -396.531)" fill="#b6a893"/>
    <path id="Path_18" data-name="Path 18" d="M102.4,274.066a1,1,0,0,1-.72-.87l-1.42-12.56v-.11a1,1,0,0,1,.32-.76l7.9-7.46a1.007,1.007,0,0,1,1.69.58l1.86,10.58a1,1,0,0,1-.25.86l-8.34,9.44A1,1,0,0,1,102.4,274.066Zm1.08-3.42,6.46-7.32-1.43-8.19-6.13,5.78Z" transform="translate(214.856 -113.626)" fill="#b6a893"/>
    <path id="Path_19" data-name="Path 19" d="M57.8,341.719c0,.13.2.13.21,0,.92-10.62-7.66-19.92-18.27-20.42-9.79-.45-19.65,8.12-17.35,18.37.74,3.3,5.58,2.4,5.71-.78.32-7.66,4.09-13.61,12.65-13.52C49.13,325.449,57.77,333.179,57.8,341.719Z" transform="translate(347.04 -250.589)" fill="#b6a893"/>
    <path id="Path_20" data-name="Path 20" d="M48.916,334.534c4.07-13.38-19.23-21.38-24.09-8.38-1.32,3.53,5,5.25,5.61,1.55.88-4.92,7.3-4.65,11-3.37a10.27,10.27,0,0,1,7.27,10.19C48.716,334.624,48.876,334.634,48.916,334.534Z" transform="translate(353.134 -241.644)" fill="#b6a893"/>
    <path id="Path_21" data-name="Path 21" d="M117.39,348.177c8.64-4,15.88-10.55,25.81-11.44a.105.105,0,0,0,0-.21c-9.69,0-20.56,2.13-28.16,8.61C113.24,346.677,115.55,349.037,117.39,348.177Z" transform="translate(169.48 -272.377)" fill="#b6a893"/>
    <path id="Path_22" data-name="Path 22" d="M152.012,325.234a.1.1,0,1,0,0-.2c-6.39.25-12.42-1.87-18-4.94-3.56-2-7-5.61-11-6.41-1.06-.21-2.28.95-1.54,2,2.66,3.76,8.2,5.47,12.41,7.05A41.5,41.5,0,0,0,152.012,325.234Z" transform="translate(153.809 -226.534)" fill="#b6a893"/>
    <path id="Path_23" data-name="Path 23" d="M130.334,355.568a1,1,0,0,1,.37-1.81l12.28-2.87a1,1,0,0,1,.87.2l8.4,6.7a1,1,0,0,1,.37,1,1.06,1.06,0,0,1-.7.8l-10.38,3.39a1.129,1.129,0,0,1-.32.05,1.06,1.06,0,0,1-.59-.19Zm3.1-.35,8,5.63,8-2.61-6.5-5.18Z" transform="translate(144.626 -301.378)" fill="#b6a893"/>
    <path id="Path_24" data-name="Path 24" d="M31.3,306.241c8-6.86,4.8-21.41,1.48-30-4.77-12.42-13.77-22.78-19.52-34.57a14.74,14.74,0,0,0,5.91,2.21c12.46,1.93,17.48-11.88,12.12-20.67a21.13,21.13,0,0,1,4.15-16.8c3.41-4.19-3.38-8.81-5.64-4.35a22.57,22.57,0,0,0-1.69,17.49,13.609,13.609,0,0,0-2.06-1.36c-14.52-7.78-13.37,15.78-3.7,8.62.11-.08,0-.25-.1-.18q6-6.38,7.11-.19,3.69,6.48-2.55,13.32c-5.15,3.53-12.18-.61-14.92-4.82s-3.52-9.72-3.13-14.69c.76-9.72,5.52-18.86,10-27.34,7.29-13.9,17.8-28.76,17.89-45.07,0-2.76-4.09-2.71-4.27,0-1.39,21.49-16.8,38.88-23.86,58.61-3.27,9.16-5.17,26.08,2.83,33.71a132.6,132.6,0,0,0,9.57,19.9c4,7.07,7.94,14.3,9.63,22.31,1.82,8.62-1.21,14.8-1.44,23a1.28,1.28,0,0,0,2.19.87Z" transform="translate(384.822 -39.901)" fill="#b6a893"/>
    <path id="Path_25" data-name="Path 25" d="M220.837,400.492c-.77-1.69-1-3.54-1.75-5.21-.85-1.88-3.62-.49-3.19,1.34,1,4.27,5.33,6.74,8.45,9.28a.1.1,0,0,0,.13-.16,13.88,13.88,0,0,1-3.64-5.25Z" transform="translate(-13.197 -387.802)" fill="#b6a893"/>
    <path id="Path_26" data-name="Path 26" d="M205.513,389.525c.19,6.1,2.6,10.64,6.36,15.26a.1.1,0,0,0,.16-.13c-3.07-4.05-3.74-9.75-2.72-14.62a1.94,1.94,0,0,0-.5-1.88l-.47-.39a1.12,1.12,0,0,0-1.29-.17l-.58.26a1.88,1.88,0,0,0-.96,1.67Z" transform="translate(9.607 -379.775)" fill="#b6a893"/>
    <path id="Path_27" data-name="Path 27" d="M25.295,243.729a.1.1,0,1,0,.18-.1c-.7-1.41-1-2.7-2.11-3.91a6.11,6.11,0,0,0-4.38-2c-2.68-.27-2.78,4.26,0,4.25C20.915,241.969,24.055,241.929,25.295,243.729Z" transform="translate(384.745 -68.979)" fill="#b6a893"/>
    <path id="Path_28" data-name="Path 28" d="M209.573,391.663c-1,2.46,1.09,5.85,2.44,7.9,1.74,2.66,4,4.43,6.42,6.42.1.08.25-.07.14-.15a16.4,16.4,0,0,1-4.62-7.54c-.7-2.22-.26-5.1-1.55-7a1.57,1.57,0,0,0-2.83.37Z" transform="translate(-0.753 -384.053)" fill="#b6a893"/>
    <path id="Path_29" data-name="Path 29" d="M152.383,391.554a131.75,131.75,0,0,0,19.9,9.58c7.62,8.05,24.54,6.14,33.71,2.86,19.73-7.05,37.11-22.47,58.6-23.86,2.72-.17,2.77-4.28,0-4.27-16.3.09-31.16,10.6-45.06,17.9-8.49,4.45-17.62,9.21-27.35,10-5,.39-10.44-.34-14.69-3.12s-8.35-9.77-4.82-14.93q6.84-6.24,13.32-2.54,6.18,1.08-.19,7.11c.08-.12-.1-.21-.17-.11-7.16,9.69,16.37,10.84,8.59-3.67a14.507,14.507,0,0,0-1.36-2.07,22.55,22.55,0,0,0,17.48-1.75c4.46-2.26-.16-9-4.34-5.63a21.14,21.14,0,0,1-16.73,4.15c-8.79-5.36-22.61-.35-20.68,12.11a14.83,14.83,0,0,0,2.21,5.91c-11.79-5.74-22.15-14.74-34.57-19.52-8.62-3.32-23.17-6.5-30,1.49a1.28,1.28,0,0,0,.89,2.15c8.18-.23,14.36-3.26,23-1.44C138.073,383.624,145.313,387.6,152.383,391.554Z" transform="translate(54.627 -370.174)" fill="#b6a893"/>
    <path id="Path_30" data-name="Path 30" d="M17.228,193.425c-1.67-.76-3.52-1-5.21-1.74a14,14,0,0,1-5.25-3.64.1.1,0,0,0-.16.12c2.53,3.12,5,7.45,9.27,8.45C17.708,197.045,19.108,194.285,17.228,193.425Z" transform="translate(402.462 27.845)" fill="#b6a893"/>
    <path id="Path_31" data-name="Path 31" d="M7.749,200.637c4.62,3.77,9.16,6.17,15.26,6.37a1.89,1.89,0,0,0,1.67-1c.08-.19.17-.39.26-.58a1.14,1.14,0,0,0-.19-1.25l-.39-.48a1.93,1.93,0,0,0-1.89-.49c-4.87,1-10.56.35-14.62-2.73A.094.094,0,1,0,7.749,200.637Z" transform="translate(394.421 5.043)" fill="#b6a893"/>
    <path id="Path_32" data-name="Path 32" d="M13,382.021c-2.74-2.47-6.21-5.55-7.78-8.93,0-.11-.23,0-.19.08.76,1.79,1.18,3.72,1.94,5.53a25.051,25.051,0,0,0,3.29,5.43C11.853,386.2,14.823,383.651,13,382.021Z" transform="translate(408.567 -345.441)" fill="#b6a893"/>
    <path id="Path_33" data-name="Path 33" d="M16.537,381.424c-2-6.19-6.16-11.59-8.06-17.92,0-.13-.24-.08-.2.05,1.68,6.25,1.46,13.62,4.9,19.28C14.227,384.574,17.207,383.464,16.537,381.424Z" transform="translate(402.263 -334.614)" fill="#b6a893"/>
    <path id="Path_34" data-name="Path 34" d="M14.725,356.769a.105.105,0,0,0-.21,0c.05,9.11.11,17.9,2.7,26.72.74,2.52,4.77,1.4,3.93-1.09C18.335,374.069,15.375,365.579,14.725,356.769Z" transform="translate(391.395 -329.069)" fill="#b6a893"/>
    <path id="Path_35" data-name="Path 35" d="M225.261,399.195a1.78,1.78,0,0,0-.35,2.74,14.881,14.881,0,0,0,2.39,2.37c.91.72,2.12,1.16,3,1.92a.1.1,0,0,0,.12-.16,7,7,0,0,1-1.77-2.91,14,14,0,0,1-.8-2.92,1.76,1.76,0,0,0-2.59-1.04Z" transform="translate(-27.711 -392.685)" fill="#b6a893"/>
    <path id="Path_36" data-name="Path 36" d="M10.22,382.39a19.529,19.529,0,0,1-5.34-2.27.19.19,0,0,0-.26.26,20.74,20.74,0,0,0,4,4.76C10.74,387.01,12.74,383.04,10.22,382.39Z" transform="translate(411.18 -353.22)" fill="#b6a893"/>
    <path id="Path_37" data-name="Path 37" d="M39.421,407.289c-3.39-1.57-6.46-5-8.93-7.78-1.63-1.81-4.18,1.15-2.12,2.74a24.351,24.351,0,0,0,5.44,3.29c1.8.77,3.73,1.19,5.53,1.94C39.451,407.529,39.521,407.339,39.421,407.289Z" transform="translate(360.099 -393.919)" fill="#b6a893"/>
    <path id="Path_38" data-name="Path 38" d="M54.738,392.595c12-.3,24,.27,36.08.37a.11.11,0,1,1,0,.21h-.16v.09c-2.66,1-4.87,3-7,4.87-1.86,1.63-4,3.66-4.37,6.2a1.56,1.56,0,0,1-.93,1.28,1.19,1.19,0,0,1-1.48.1h-.06a2.38,2.38,0,0,1-1-.59,103.642,103.642,0,0,0-21.48-9.87,1.36,1.36,0,0,1,.4-2.66Zm35.27.63c-9.46.56-18.89,1.36-28.36,1.81a106.423,106.423,0,0,1,14.19,6.95c2.39-5.37,8.9-7.36,14.17-8.76Z" transform="translate(282.832 -385.925)" fill="#b6a893"/>
    <path id="Path_39" data-name="Path 39" d="M29.694,399.344c5.66,3.44,13,3.21,19.28,4.9.13,0,.18-.17.06-.2-6.33-1.9-11.74-6.05-17.92-8.07C29.074,395.314,27.924,398.294,29.694,399.344Z" transform="translate(349.246 -387.614)" fill="#b6a893"/>
    <path id="Path_40" data-name="Path 40" d="M62.334,386.357A93.68,93.68,0,0,1,31.6,384.3c-3.71-.87-4.49,4.8-.7,5.14a88.511,88.511,0,0,0,31.46-2.88.1.1,0,0,0-.03-.2Z" transform="translate(336.306 -361.477)" fill="#b6a893"/>
    <path id="Path_41" data-name="Path 41" d="M78.023,363.833a10.29,10.29,0,0,1,10.2,7.26c1.28,3.72,1.54,10.15-3.38,11-3.7.66-2,6.94,1.55,5.61,12.94-4.86,5-28.16-8.39-24.08C77.893,363.673,77.893,363.843,78.023,363.833Z" transform="translate(256.277 -338.523)" fill="#b6a893"/>
    <path id="Path_42" data-name="Path 42" d="M8.163,333.237c2.54-.35,4.56-2.52,6.19-4.37,1.84-2.1,3.89-4.3,4.87-7h.1a.86.86,0,0,1,0-.16.1.1,0,1,1,.2,0c.11,12,.67,24,.38,36.08a1.37,1.37,0,0,1-2.67.36A104.61,104.61,0,0,0,7.4,336.7a2.27,2.27,0,0,1-.59-1,.13.13,0,0,1,0-.05,1.19,1.19,0,0,1,.09-1.48,1.56,1.56,0,0,1,1.26-.93Zm2.35,3.46a105.167,105.167,0,0,1,7,14.18c.45-9.46,1.25-18.89,1.8-28.36C17.873,327.787,15.883,334.287,10.513,336.7Z" transform="translate(400.587 -268.187)" fill="#b6a893"/>
    <path id="Path_43" data-name="Path 43" d="M17.562,400.1a6.5,6.5,0,0,1-4.22-.94,6.43,6.43,0,0,1-.94-4.23,4.32,4.32,0,0,1,2.24-3,3.28,3.28,0,0,1,3.06.14,10,10,0,0,1,1.5,1.25,8.931,8.931,0,0,1,1.24,1.5,3.28,3.28,0,0,1,.15,3.06A4.39,4.39,0,0,1,17.562,400.1Zm1.16-4.68a4.36,4.36,0,0,0-.29-1.35,4.44,4.44,0,0,0-1.36-.3c-1.27,0-1.06,1.23-.66,2.31C17.5,396.486,18.722,396.686,18.722,395.416Z" transform="translate(393.918 -379.246)" fill="#b6a893"/>
    <path id="Path_44" data-name="Path 44" d="M55.745,397.792c-8.84-.66-17.31-3.61-25.64-6.43-2.48-.83-3.6,3.19-1.08,3.93,8.82,2.59,17.6,2.66,26.72,2.71C55.875,398,55.875,397.8,55.745,397.792Z" transform="translate(343.725 -376.742)" fill="#b6a893"/>
    <path id="Path_45" data-name="Path 45" d="M170.538,393.522c0,2.78,4.51,2.69,4.25,0a6.17,6.17,0,0,0-2-4.38c-1.21-1.1-2.51-1.4-3.91-2.11a.11.11,0,0,0-.11.18C170.538,388.462,170.538,391.6,170.538,393.522Z" transform="translate(83.633 -370.092)" fill="#b6a893"/>
    <path id="Path_46" data-name="Path 46" d="M73.6,384.4c-3.18.13-4.07,5-.77,5.72,10.25,2.29,18.82-7.57,18.36-17.35-.49-10.62-9.85-19.2-20.41-18.27a.11.11,0,0,0,0,.21c8.54,0,16.26,8.67,16.35,17.05C87.209,380.314,81.269,384.094,73.6,384.4Z" transform="translate(265.261 -332.384)" fill="#b6a893"/>
    <path id="Path_47" data-name="Path 47" d="M25.05,404.11a58.291,58.291,0,0,0-16.84.25,57.58,57.58,0,0,0,.25-16.79c-.07-.53.52-1,1-1,5.28,0,10.47.43,15.69.86.42,5.22.85,10.41.85,15.68A1,1,0,0,1,25.05,404.11Zm-.89-2.19a126.259,126.259,0,0,0,.71-14.17,126.221,126.221,0,0,0-14.16.72,47.16,47.16,0,0,1,.9,12.54,47.28,47.28,0,0,1,12.55.92Z" transform="translate(392.96 -378.42)" fill="#b6a893"/>
    <path id="Path_48" data-name="Path 48" d="M28.251,380.91a93.42,93.42,0,0,1-2.06-30.75.105.105,0,0,0-.21,0,88.69,88.69,0,0,0-2.91,31.44C23.441,385.4,29.071,384.62,28.251,380.91Z" transform="translate(376.099 -321.65)" fill="#b6a893"/>
    <path id="Path_49" data-name="Path 49" d="M39.91,357.73a63.52,63.52,0,0,0,17.83-3,63.46,63.46,0,0,0-3.05,17.82c-.09,2.95.6,6-1.82,8.28-2.1,1.93-5.28,1.6-7.87,1.57-5.44-.07-10.79.82-16.14,1.2.39-5.35,1.27-10.69,1.2-16.13,0-2.59-.35-5.78,1.58-7.88C33.87,357.12,36.97,357.81,39.91,357.73Zm12.45,9.38c-.22.3-.42.61-.68.91-2.76,3.19-7.24,5.37-11.46,4.17-1.2-4.22,1-8.69,4.18-11.45a9.789,9.789,0,0,1,.91-.68l-.42.07c-1.43.21-6.3-.05-7.48.58-6.09,3.24-3.27,11.9-3.71,17.42l-.06.64.64-.06c5.53-.44,14.18,2.38,17.43-3.71.63-1.18.37-6.05.58-7.47.02-.14.05-.28.07-.42Zm2.15-9.2c-4.8,1.89-9.44,5.29-10.18,10.18,4.89-.76,8.27-5.39,10.18-10.18Z" transform="translate(340.57 -325.82)" fill="#b6a893"/>
    <path id="Path_50" data-name="Path 50" d="M31.01,381.42l.17-.09-.08.18v-.11Z" transform="translate(364.98 -350.33)" fill="#b6a893"/>
  </g>
</svg>
